<svg id="Layer_1" enable-background="new 0 0 512 512" height="512" viewBox="0 0 512 512" width="512" xmlns="http://www.w3.org/2000/svg"><g><path d="m464.866 487.9h-417.732c-8.284 0-15-6.716-15-15v-305.267c0-8.284 6.716-15 15-15h417.732c8.284 0 15 6.716 15 15v305.267c0 8.284-6.716 15-15 15z" fill="#ff8250"/><path d="m479.866 472.9v-305.267c0-8.284-6.716-15-15-15h-208.866v335.267h208.866c8.284 0 15-6.716 15-15z" fill="#fd4141"/><path d="m143.533 118.367h-64.266c-8.284 0-15-6.716-15-15v-64.267c0-8.284 6.716-15 15-15h64.267c8.284 0 15 6.716 15 15v64.267c-.001 8.284-6.717 15-15.001 15z" fill="#fbf2f5"/><path d="m143.533 24.1h-32.133v94.267h32.133c8.284 0 15-6.716 15-15v-64.267c0-8.284-6.716-15-15-15z" fill="#e6e7e9"/><path d="m432.733 118.367h-64.267c-8.284 0-15-6.716-15-15v-64.267c0-8.284 6.716-15 15-15h64.267c8.284 0 15 6.716 15 15v64.267c0 8.284-6.715 15-15 15z" fill="#fbf2f5"/><path d="m432.733 24.1h-32.133v94.267h32.133c8.284 0 15-6.716 15-15v-64.267c0-8.284-6.715-15-15-15z" fill="#e6e7e9"/><path d="m218.126 422.492c-5.605-2.322-9.26-7.792-9.26-13.858v-65.334h-33.199c-5.198 0-10.026-2.692-12.76-7.114-2.733-4.422-2.981-9.944-.656-14.594l48.199-96.4c2.54-5.082 7.734-8.292 13.416-8.292h96.4c5.198 0 10.026 2.692 12.76 7.114 2.733 4.422 2.981 9.944.656 14.594l-21.278 42.559h23.929c6.067 0 11.536 3.655 13.858 9.26 2.321 5.605 1.038 12.057-3.252 16.347l-112.466 112.466c-4.603 4.604-11.157 5.401-16.347 3.252z" fill="#ffff71"/><path d="m350.191 290.426c-2.322-5.605-7.791-9.26-13.858-9.26h-23.929l21.278-42.559c2.325-4.65 2.077-10.172-.656-14.594s-7.562-7.114-12.76-7.114h-64.266v180.812l90.939-90.939c4.29-4.289 5.574-10.741 3.252-16.346z" fill="#fde000"/><path d="m497 182.633h-482c-8.284 0-15-6.716-15-15v-64.267c0-8.284 6.716-15 15-15h482c8.284 0 15 6.716 15 15v64.267c0 8.284-6.716 15-15 15z" fill="#e6e7e9"/><path d="m512 167.633v-64.267c0-8.284-6.716-15-15-15h-241v94.267h241c8.284 0 15-6.716 15-15z" fill="#d2dcdc"/><path d="m497 487.9h-482c-8.284 0-15-6.716-15-15s6.716-15 15-15h482c8.284 0 15 6.716 15 15s-6.716 15-15 15z" fill="#fd4141"/><path d="m512 472.9c0-8.284-6.716-15-15-15h-241v30h241c8.284 0 15-6.716 15-15z" fill="#ba3a46"/></g></svg>