<?xml version="1.0"?><svg width="286.197" height="233.073" xmlns="http://www.w3.org/2000/svg">

 <g>
  <title>Layer 1</title>
  <path fill-rule="evenodd" stroke="#000000" stroke-width="0.036" stroke-miterlimit="10" id="path7" d="m86.961998,194.164993c-0.467995,4.535004 -1.907997,9.323013 -4.860001,14.363007c-2.987999,5.003998 -6.767998,11.447998 -12.455994,15.587997c-5.832005,3.996002 -14.292004,7.70401 -21.636005,8.604004c-7.415997,0.755997 -14.939999,0.503998 -21.995998,-3.671997c-7.091999,-4.356003 -15.588,-12.097 -19.944,-21.419998c-4.32,-9.432999 -6.156,-24.372009 -6.048,-34.272003c-0.072,-10.044006 3.456,-18 5.868,-24.552002c2.34,-6.444 5.04,-11.087997 8.244,-13.932007l0,0c-1.872,0.10701 -3.024,-0.216995 -3.312,-1.261002c-0.36,-1.11499 -0.575999,-2.519989 1.296,-4.787994c1.836,-2.410995 5.976,-6.372002 9.504,-8.963997c3.384001,-2.592003 6.948,-4.68 10.836,-6.408005l0,0c-2.052,-0.755997 -3.348,-1.979996 -4.032,-3.671997c-0.684,-1.727997 -0.684,-3.923996 0,-6.587997l0,0c-2.52,-0.540001 -4.536001,-1.080002 -6.048,-2.015999c-1.548,-0.972 -3.096001,-1.944 -3.132,-3.312004c-0.216,-1.512001 1.403999,-3.563995 2.375999,-4.751999c0.864,-1.188004 1.368,-1.727997 3.312,-2.015999c1.907999,-0.360001 4.608,-0.360001 8.244001,0l0,0l0.539997,-1.655998l0,0c-2.699999,0.143997 -4.967999,-0.324005 -6.947998,-1.403999c-2.052,-1.152 -3.708,-2.592003 -4.968,-5.148003c-1.296,-2.700005 -2.844,-6.012001 -2.556,-10.620003c0.18,-4.788002 1.584,-11.915997 4.212,-17.208c2.52,-5.327999 7.236,-9.899998 11.375999,-14.112c4.139999,-4.175999 8.388,-7.775997 13.175999,-10.799999l0,0c0.396,-2.411999 0.252003,-4.427999 -0.719997,-6.047998c-1.080002,-1.800001 -3.384003,-2.304001 -4.968002,-3.852001c-1.655998,-1.511999 -3.959999,-3.167999 -4.391998,-5.112c-0.504002,-2.196 -0.647999,-4.968 1.655998,-7.344c2.268002,-2.448 8.460003,-5.76 11.916,-6.588c3.312,-0.864 6.696003,0.108 8.064003,1.656c1.223999,1.512 0.612,5.256 -0.18,7.488c-0.864002,2.016 -3.888,2.952 -4.608002,5.328c-0.756001,2.447999 -0.647999,5.363999 0.18,9.144l0,0c3.240002,-3.24 7.560001,-6.768 13.391998,-10.440001c5.868004,-3.816 14.832001,-9.539999 21.060005,-11.916c6.011993,-2.448 10.187996,-2.592 15.011993,-2.376c4.752007,0.108 9.431999,0.9 13.212006,3.492c3.635994,2.664 6.444,8.208 8.423996,11.916c1.764,3.564 2.160004,5.832 2.556,9.324c0.395996,3.455999 0.287994,7.056 -0.179993,11.195999l0,0l-2.196007,1.440002l0,0c-0.143997,0.323997 0.216003,0.647999 1.080002,0.575996c0.827995,-0.179996 2.159996,-0.575996 3.851997,-0.755997c1.619995,-0.18 3.671997,-0.144001 5.867996,-0.18c2.052002,-0.144001 4.248001,-0.072002 6.588013,-0.18l0,0c0.719986,-0.792 1.692993,-1.440002 3.312988,-1.656002c1.512009,-0.287998 3.238998,-0.467999 5.868011,0c2.591995,0.396 6.587997,0.756001 9.503998,2.196003c2.735001,1.295998 5.580002,3.851997 7.164001,5.868c1.584,1.871998 2.26799,3.959999 2.194992,5.868l0,0c0.612,0.827999 1.584,1.115997 2.916,0.719997c1.296005,-0.396 2.951996,-1.007999 4.968002,-3.096001c2.016998,-2.303997 4.608002,-7.416 6.947998,-9.899998c2.160004,-2.484001 3.348999,-3.528 6.048004,-4.932001c2.556992,-1.511999 5.688004,-3.312 9.539993,-4.032c3.779999,-0.792 8.171997,-0.972 13.177002,-0.540001l0,0c2.916,-4.679998 5.796005,-8.712 8.783005,-12.492c2.87999,-3.888 5.509003,-7.955999 9,-9.864c3.419998,-1.8 7.632996,-1.764 12.060989,-1.296c4.428009,0.324 10.224014,1.368 14.472015,3.132c4.140991,1.512 7.415985,4.536 10.259979,6.588c2.700012,1.98 5.14801,3.780001 6.229004,5.688c1.007996,1.908001 0.899017,3.743999 -0.179993,5.652l0,0c1.07901,1.403999 1.871002,3.348 2.376007,5.688c0.432007,2.411999 1.583984,3.599998 0.395996,8.424c-1.368011,4.68 -3.924011,11.124001 -8.062988,19.619999l0,0l2.914978,0.900002l0,0c2.664001,-0.684002 4.968994,-0.863998 6.769012,-0.540001c1.799988,0.18 2.951996,0.972 4.031982,2.375999c0.972015,1.404003 2.052002,4.355999 1.836029,6.228001c-0.433014,1.835999 -1.980011,3.779999 -3.672028,4.571999c-1.728973,0.540001 -3.491974,0.216003 -6.40799,-0.540001c-2.988007,-0.719994 -6.769012,-1.944 -11.339996,-3.671997l0,0c-0.791992,0.900002 -1.47699,1.620003 -2.196014,2.556c-0.68399,0.828003 -1.403992,1.692001 -2.015991,2.592003l0,0l0,3.096001l0,0c1.080017,-0.684006 2.268005,-0.972 3.274994,-0.720001c0.864014,0.108002 1.800018,0.683998 2.951996,2.015999c1.188019,1.403999 3.780029,3.888 4.572021,6.047997c0.720001,1.979004 0.610992,3.888 -0.179993,5.868004l0,0l-35.713013,35.711998l0,0c0.972992,2.844002 1.115997,7.128006 0.720993,12.996002c-0.432999,5.867004 -1.367996,15.335999 -3.491989,21.994995c-2.269012,6.589005 -6.335999,12.313004 -9.863998,17.028c-3.600006,4.536011 -7.236008,8.423996 -11.736008,10.26001c-4.679993,1.655991 -11.268005,1.115997 -15.587997,0.181c-4.283005,-1.116013 -7.522995,-3.132004 -9.863007,-6.048004c-2.483994,-2.988007 -3.888992,-6.624008 -4.608002,-11.341003l0,0c-8.531998,1.404007 -17.063995,3.024002 -25.991989,5.292007c-8.964005,2.159988 -18.720001,4.860001 -27.324005,7.703995c-8.711998,2.809006 -18.108002,6.444 -24.155998,8.964005c-5.975998,2.447998 -9.251999,4.82399 -11.916,5.327988c-2.882004,0.254013 -4.25,-0.681 -4.647003,-3.237l0,0zm140.112999,-170.496994c5.255997,-2.375999 9.828003,-4.067999 13.860001,-5.076c3.923996,-1.043999 6.443008,-1.188 10.044006,-1.259998c3.599991,-0.18 7.199005,-0.072001 11.230988,0.323999l0,0c-6.442993,-2.412 -11.591995,-4.212 -15.730988,-5.256001c-4.177002,-1.224 -6.553009,-2.087999 -9.072006,-1.224c-2.520996,0.936001 -4.571991,4.536 -6.155991,6.768001c-1.800003,2.052999 -3.060013,3.961 -4.17601,5.723999l0,0z"/>
  <path fill="#284146" fill-rule="evenodd" id="path9" d="m88.799004,175.947998c0.251999,-1.942993 0.359993,-4.427994 0.323997,-7.595993c-0.071999,-3.276001 -0.288002,-7.848007 -0.792,-11.340012c-0.648003,-3.563995 -1.548004,-6.695999 -2.844002,-9.684998l0,0l-2.339996,7.128998l0,0c0.575996,2.376007 0.899994,5.220001 0.972,8.531006c0.071999,3.240005 0.071999,6.479996 -0.684006,11.123993c-0.863998,4.645004 -2.304001,9.973007 -4.32,16.380005l0,0c0.360001,1.764999 1.152,2.664001 2.088005,2.412003c0.899994,-0.216003 2.411995,-0.936005 3.708,-3.707993c1.331993,-2.806 2.447998,-7.270004 3.888,-13.247009l0,0z"/>
  <path fill="#506e6e" fill-rule="evenodd" id="path11" d="m29.903,155.645004c-0.684,2.268997 -1.296,4.608002 -1.836,7.020996c-0.539999,2.410995 -1.043999,3.600006 -1.368,7.307999c-0.467999,3.528 -1.368,9.468002 -1.188,14.076004c0.036001,4.5 0.288,8.854996 1.584,13.21199c1.224001,4.428009 3.42,9.216003 6.048002,12.815002c2.519997,3.421005 5.507999,6.229004 9.107998,7.740005c3.563999,1.403992 8.172001,1.332001 12.024002,0.755997c3.635998,-0.720001 7.091999,-2.304001 10.367996,-4.895996c3.167999,-2.772003 6.660004,-6.695999 9.108002,-10.656006c2.375999,-3.888 4.211998,-8.063004 5.363998,-12.528l0,0c1.223999,-1.043991 2.520004,-2.194992 3.744003,-3.599991c1.295998,-1.368011 2.447998,-2.988007 3.599998,-4.716003c1.043999,-1.835999 1.692001,-3.960007 2.340004,-6.229004l0,0c-1.080002,7.093002 -2.124001,13.068008 -3.132004,18.072006c-1.080002,4.931992 -1.403999,7.919998 -3.204002,11.735992c-1.871994,3.815002 -4.715996,7.632004 -7.848,11.160004c-3.276001,3.419998 -6.227997,6.876007 -11.231998,9.395996c-5.112,2.447998 -12.924,5.040009 -18.972,5.255997c-6.119999,0.108002 -11.663998,-0.863998 -17.316,-4.319c-5.76,-3.600998 -12.924,-9.791992 -16.919999,-16.775986c-3.996,-7.128006 -6.084,-17.604004 -7.236,-25.021011c-1.296,-7.416 -1.476,-12.347992 -0.396,-18.972c1.044,-6.76799 5.364,-17.531998 6.552,-21.022995c1.044,-3.528 1.044,-3.528 0,0l0,0c1.728,0.070999 3.672,0.539993 5.688,1.259995c2.016,0.756012 4.536,1.943008 6.443999,3.02301c1.656,0.827988 3.024,1.584 4.392,2.556992c1.403,1.044006 2.880001,1.979004 4.284,3.348007l0,0z"/>
  <path fill="#284146" fill-rule="evenodd" id="path13" d="m9.095,145.457001c1.403999,-2.951996 2.952,-5.363998 4.788,-7.524002c1.691999,-2.160004 3.492,-3.923996 5.975999,-5.291992c2.412001,-1.548004 5.652,-2.59201 8.892,-3.132004c3.132,-0.612 7.596001,-0.468002 10.476002,0c2.879997,0.468002 4.931999,1.332001 6.551998,2.735001l0,0c-3.096001,2.699997 -5.688,5.544998 -7.919998,8.531998c-2.268002,2.880005 -4.139999,6.587997 -5.472,9.181c-1.332001,2.591995 -2.160002,4.606995 -2.484001,6.190994l0,0c-2.628,-2.159988 -5.652,-3.996002 -9.072001,-5.79599c-3.563999,-1.799011 -7.343999,-3.383011 -11.735999,-4.895004l0,0z"/>
  <path fill="#78878c" fill-rule="evenodd" id="path15" d="m15.935,196.001007c-1.26,-2.809006 -3.780001,-7.70401 -4.5,-12.601013c-0.864,-4.858994 -1.620001,-11.447998 -0.468,-16.164001c1.008,-4.895996 4.968,-10.942993 7.02,-12.311996c2.088001,-1.332001 4.932001,0.143997 5.184,3.996002c0.036001,3.708008 -3.42,13.031006 -4.392,18.106995c-1.007999,4.896011 -1.26,7.776001 -1.188,11.557007c0.072001,3.742996 1.548,9.287994 1.368,10.654999c-0.396,1.225998 -1.729,-0.681992 -3.023999,-3.237991l0,0z"/>
  <path fill="#a0afaf" fill-rule="evenodd" id="path17" d="m14.17,164.824005c-0.144,-1.872009 1.008,-4.716003 2.052,-5.903c0.972,-1.261002 3.024,-1.872009 3.924,-1.152008c0.792,0.755997 1.691999,3.492004 1.188,5.580002c-0.719999,1.979004 -3.492001,5.796005 -4.716,6.156006c-1.331,0.106995 -2.339,-2.880005 -2.448,-4.681l0,0z"/>
  <path fill="#d7f0e6" fill-rule="evenodd" id="path19" d="m126.850998,23.667999c-0.360001,-2.627998 -1.043999,-5.184 -2.339996,-7.811999c-1.332001,-2.736 -3.636002,-5.904 -5.256004,-7.956c-1.655998,-2.016 -2.447998,-3.132 -4.607994,-4.032c-2.304001,-0.972 -6.012001,-1.656 -8.748001,-1.908c-2.772003,-0.36 -5.220001,-0.612 -7.884003,-0.216c-2.844002,0.252 -5.400002,0.684 -8.783997,2.124c-3.528,1.404 -8.100006,3.852 -11.772003,6.228c-3.779999,2.268001 -7.307999,4.536 -10.295998,7.488c-3.060005,2.952 -5.796001,6.84 -7.668003,9.864c-1.944,2.879999 -3.023998,5.219999 -3.635998,7.452002c-0.792,2.195999 -1.476002,4.643997 -0.396,5.543999c1.115997,0.647999 4.175999,-0.684002 6.84,-1.080002c2.447998,-0.431999 4.463997,-1.368 8.423996,-1.439999c4.068001,-0.216 11.628006,0.108002 15.300003,0.540001c3.456001,0.287998 5.183998,0.827999 5.615997,1.764c0.216003,0.972 -2.664001,2.700001 -3.635994,3.924c-1.008003,1.079998 -1.692001,2.16 -2.196007,2.952l0,0c3.708,-1.908001 8.280006,-4.248001 14.400002,-7.416c6.012001,-3.276001 16.884003,-8.639999 21.492004,-11.375999c4.391998,-2.698999 6.155998,-4.248001 5.147995,-4.644001l0,0z"/>
  <path fill="#78878c" fill-rule="evenodd" id="path21" d="m85.810997,47.104c2.375999,-0.827999 4.68,-1.512001 6.912003,-2.052002c2.195999,-0.539997 4.248001,-1.151997 6.300003,-1.439999l0,0c2.879997,-2.304001 5.579994,-4.104 8.099998,-5.543999c2.412003,-1.476002 4.968002,-2.808002 6.695999,-3.024002c1.512001,-0.431999 1.727997,0.756001 3.024002,1.080002c1.223999,0.287998 2.736,0.720001 4.535995,0.612c1.800003,-0.18 3.779999,-0.720001 6.084,-1.619999l0,0c0.216003,-0.648003 0.288002,-1.908001 0.216003,-3.780001c-0.071999,-1.944 -0.396004,-4.5 -0.828003,-7.668001l0,0c-7.883995,3.780001 -14.615997,6.912001 -20.195999,10.080002c-5.687996,3.023998 -9.935997,5.832001 -13.428001,8.135998c-3.455994,2.16 -5.976997,3.997002 -7.416,5.220001l0,0z"/>
  <path opacity="0.54" fill="#ffffff" fill-rule="evenodd" id="path23" d="m68.675003,37.997002c5.723999,-5.904003 11.015999,-11.088001 16.307999,-15.696001c5.220001,-4.716002 10.367996,-8.712001 14.867996,-11.988001c4.391998,-3.312 8.064003,-5.796 11.304001,-7.596l0,0c1.548004,0.36 2.700005,0.792 3.852005,1.296c0.935997,0.396 1.871994,0.972 2.519997,1.584c0.720001,0.576 1.152,1.188 1.584,1.98l0,0c-5.400002,2.628 -10.692001,5.796 -16.164001,9.36c-5.615997,3.636 -12.311996,8.459999 -16.596001,12.132c-4.32,3.563999 -7.127998,6.408001 -8.82,8.928001l0,0c-1.944,-0.072002 -3.636002,-0.216003 -5.075996,-0.144001c-1.512001,-0.072002 -2.772003,0.071999 -3.779999,0.144001l0,0z"/>
  <path fill="#284146" fill-rule="evenodd" id="path25" d="m49.377998,28.997l4.788002,-3.743999l0,0c-0.864002,-2.988001 -1.080002,-5.507999 -1.043999,-7.416c0.071999,-2.016 0.647999,-3.132 1.584,-4.32c0.792,-1.332 2.483997,-2.016 3.275997,-3.42c0.612003,-1.512 1.260002,-4.068 0.972,-5.328c-0.359997,-1.368 -1.295998,-2.412 -2.952,-2.556c-1.691998,-0.288 -4.896,0.72 -7.127998,1.656c-2.484001,0.972 -5.292,2.808 -6.911999,4.248c-1.548,1.332001 -2.34,2.34 -2.52,3.708c-0.360001,1.188 -0.432003,2.16 0.756001,3.744c1.223999,1.584 4.823997,3.924 6.371998,5.507999c1.403999,1.368 1.799999,1.836 2.304001,3.204c0.432999,1.296 0.647999,2.916 0.503998,4.716l0,0z"/>
  <path fill="#a0afaf" fill-rule="evenodd" id="path27" d="m52.979,24.353001c-0.071999,-1.116001 -1.152,-4.104 -1.152,-5.904001c-0.071999,-1.799999 1.332001,-3.492 1.296001,-4.247999c-0.108002,-0.72 -1.080002,-1.008 -1.512001,-0.18c-0.540001,0.792 -1.080002,2.771999 -1.080002,4.572001c0.036003,1.691999 0.792004,4.392 1.296001,5.472c0.431999,1.042999 1.007,1.042999 1.152,0.288l0,0z"/>
  <path fill="#ff0000" fill-rule="evenodd" id="path29" d="m34.834,62.800999c0.18,-2.411999 0.612,-4.859997 1.296001,-7.487999c0.683998,-2.771999 1.691998,-5.759998 2.736,-8.424c0.863998,-2.771999 2.051998,-5.436001 3.023998,-7.452c0.900002,-2.088001 1.908001,-3.528 2.736,-4.608002l0,0c1.260002,-1.115997 2.771999,-2.375999 4.535999,-3.635998c1.800003,-1.404001 4.284,-3.348001 5.904003,-4.176001c1.511997,-0.936001 2.735996,-1.440001 2.987999,-0.828001c0.071999,0.612001 -1.440002,2.628 -2.195999,4.68c-0.828003,1.98 -2.088001,5.436001 -2.376003,7.307999c-0.323997,1.764004 -0.323997,2.664001 0.684002,3.240002c0.827999,0.431999 2.304001,0.251999 5.003998,-0.144001c2.772003,-0.503998 7.524002,-1.907997 11.484001,-2.267998c3.851997,-0.252003 8.568001,0.035999 11.664001,0.431999c2.951996,0.144001 5.795998,0.107998 6.299995,1.007999c0.396004,0.863998 -2.556,3.024002 -3.419998,4.392002c-1.007996,1.295998 -2.267998,2.879997 -1.979996,3.635998c0.251999,0.684002 1.584,0.792 3.563995,0.468002c1.908005,-0.324001 4.392006,-1.368 7.740005,-2.736l0,0c-6.300003,3.167999 -12.384003,6.587997 -18.792,10.547997c-6.408005,3.924004 -12.708004,8.099998 -19.296005,12.816002l0,0c-1.367996,-2.232002 -3.132,-3.924004 -5.147999,-5.220001c-2.051998,-1.259998 -4.5,-2.304001 -7.200001,-2.447998c-2.734997,-0.253002 -5.866997,-0.000999 -9.251999,0.899998l0,0z"/>
  <path fill="#ff0000" fill-rule="evenodd" id="path31" d="m39.839001,52.360001c0.216,-2.411999 0.323997,-5.076 2.124001,-8.136002c1.691998,-3.167999 7.02,-9.647999 8.351997,-10.295998c1.188,-0.540001 -1.188,4.5 -0.612,6.371998c0.540001,1.692001 0.756001,3.420002 4.104,3.636002c3.384003,0 11.124001,-2.771999 15.840004,-3.060001c4.535995,-0.360001 10.043999,-0.035999 11.519997,1.368c1.332001,1.260002 1.188004,3.563999 -2.952003,6.911999c-4.283997,3.492001 -17.819996,11.736 -21.995995,13.5c-4.176003,1.476006 -1.152,-3.311996 -2.736,-4.104c-1.872002,-0.827999 -4.896,-0.827999 -7.128002,-0.827999c-2.195999,0 -4.607998,1.296001 -5.688,0.540001c-1.116001,-1.007 -1.116001,-3.527 -0.827999,-5.903999l0,0z"/>
  <path fill="#ff0000" fill-rule="evenodd" id="path33" d="m20.794001,69.028999c-0.540001,3.996002 -0.360001,7.379997 0.684,10.295998c1.007999,2.844002 3.024,5.256004 5.472,6.840004c2.303999,1.403999 5.039999,1.620003 8.639999,2.052002c3.528,0.251999 8.279999,0.18 12.456001,0.467995c4.031998,0.431999 8.855999,0.900002 11.952,1.800003c3.059998,0.792 5.112,1.835999 6.299995,3.131996l0,0c3.060005,-0.035995 7.128006,-0.251999 12.600006,-0.647995c5.399994,-0.540001 12.599998,-0.576004 19.655998,-1.908005c6.947998,-1.439995 17.351997,-3.851997 22.068001,-5.832001c4.535995,-1.979996 5.615997,-4.571999 5.760002,-5.687996c0.107994,-1.188004 -1.548004,-1.368004 -4.824005,-1.368004c-3.348,-0.179993 -3.311996,-0.035995 -15.047997,0.864006c-11.916,0.827995 -30.167999,2.267998 -55.584003,4.32l0,0c-1.98,1.259995 -4.535999,1.944 -7.523998,2.051994c-3.096001,0.036003 -7.632,-0.323997 -10.548,-1.655998c-3.059999,-1.475998 -5.903999,-4.248001 -7.128,-6.767998c-1.223999,-2.520004 -1.223999,-5.328003 0,-8.279999l0,0l-4.931999,0.323997l0,0z"/>
  <path fill="#ff0000" fill-rule="evenodd" id="path35" d="m41.063,37.673c-1.152,0.972 -2.088001,1.764 -3.203999,2.771c-1.116001,0.863998 -2.124001,1.655998 -3.167999,2.771999c-1.080002,1.116001 -2.34,2.375999 -3.384003,3.779999c-1.188,1.296001 -2.448,2.412003 -3.383999,3.744003c-0.9,1.188 -1.656,2.051998 -2.268,3.419998c-0.792,1.296001 -1.656,2.807999 -2.196001,4.391998c-0.647999,1.404003 -1.152,2.844002 -1.511999,4.608002c-0.576,1.836002 -1.008001,3.887997 -1.152,5.868c-0.18,1.872002 -0.072001,4.283997 0.323999,5.148003c0.396,0.683998 1.044001,0.431999 1.944,-0.468002c0.720001,-0.935997 1.656,-3.671997 2.664,-5.003998c0.864,-1.440002 1.872002,-2.340004 3.168001,-3.240005c1.296,-0.972 2.771999,-1.907997 4.571999,-2.663998l0,0c0.108002,-1.548 0.431999,-2.880001 0.576,-4.391998c0.072002,-1.548 0.216,-2.880001 0.576,-4.392002c0.360001,-1.584 1.043999,-3.239998 1.656002,-4.823997c0.467999,-1.692001 1.151997,-3.492001 1.655998,-4.824001c0.431999,-1.476002 1.080002,-2.268002 1.548,-3.348c0.576,-1.151001 0.972,-2.268002 1.584,-3.347l0,0z"/>
  <path fill="#ff0000" fill-rule="evenodd" id="path37" d="m56.903,71.009003c2.015999,-1.476006 4.824001,-3.276001 8.711998,-5.796005c3.816002,-2.555996 8.856003,-5.867996 14.292,-9.107998c5.400002,-3.312 13.068001,-7.739998 17.748001,-10.368c4.5,-2.700001 7.632004,-4.428001 9.396004,-5.472l0,0c-0.216003,0.864002 -0.396004,1.656002 -0.396004,2.52c-0.071999,0.827999 -0.071999,1.584 0,2.411999l0,0c-3.599998,2.088001 -6.552002,4.212002 -9.395996,6.768002c-2.880005,2.411999 -5.256004,5.759998 -7.272003,8.099998c-2.124001,2.304001 -3.599998,3.600002 -4.860001,5.832005c-1.367996,2.195999 -2.447998,5.003998 -2.412003,7.307999c0.072006,2.124001 0.252007,4.463997 3.024002,5.615997c2.700005,0.972 8.532005,0.648003 13.211998,0.576004c4.644005,-0.144005 10.800003,-1.044006 14.184006,-1.188004c3.276001,-0.215996 4.860001,-0.288002 5.147995,-0.071999l0,0c-2.879997,2.015999 -7.631996,3.779999 -14.399994,5.292c-6.840004,1.512001 -18.612,2.771996 -26.172005,3.636002c-7.596001,0.755997 -13.643997,1.079994 -18.972,0.827995c-5.363998,-0.395996 -9.719997,-1.223999 -13.067997,-2.771996l0,0c2.411999,-0.216003 4.535999,-1.080002 6.371998,-2.736c1.799999,-1.800003 3.563999,-5.004005 4.464001,-6.984001c0.756001,-1.981003 0.936001,-3.313004 0.396,-4.391998l0,0z"/>
  <path fill="#ff0000" fill-rule="evenodd" id="path39" d="m107.806999,68.453003c3.204002,0.755997 6.335999,1.619995 9.792,2.447998c3.456001,0.827995 8.279999,1.692001 10.440002,2.591995c1.835999,0.756004 1.080002,0.576004 1.332001,2.376007c0.251999,1.691994 -0.432007,5.867996 0.287994,8.208c0.576004,2.159996 1.115997,3.239998 3.564011,5.615997c2.556,2.412003 8.063995,7.019997 11.088989,8.963997c2.664001,1.764 3.996002,1.728004 5.796005,2.124001c1.800003,0.288002 3.095993,-0.647995 5.255997,0.251999c2.087997,0.900002 4.464005,3.060005 7.128006,5.364006c2.556,2.303993 6.119995,5.939995 7.919998,8.135994c1.548004,1.908005 1.511993,2.520004 1.979996,4.211006c0.432007,1.728996 0.684006,3.708 0.755997,6.084l0,0c-9.071991,0.035995 -18.575989,-0.252007 -28.90799,-1.008003c-10.513,-0.755997 -30.313004,-1.727997 -32.725006,-3.348c-2.339996,-1.764 15.695999,-4.931999 18.972,-7.019997c3.132004,-2.304001 3.240005,-5.004005 0.180008,-6.156006c-3.240005,-1.259995 -10.476006,-0.792 -18.360008,-0.972c-7.919998,-0.215996 -20.664001,-0.215996 -28.223999,-0.287994c-7.487999,-0.144005 -12.996002,-0.324005 -16.524002,-0.540001l0,0c-0.108002,-1.260002 -0.143997,-2.628006 -0.251999,-4.392006c-0.143997,-1.727997 -0.251999,-3.707993 -0.323997,-5.939995l0,0c5.543999,0.035995 11.231995,-0.288002 17.208,-0.828003c5.903999,-0.683998 12.636002,-1.547997 18.251999,-2.591995c5.652,-1.152 10.944,-2.592003 15.047997,-4.032005c3.924004,-1.547997 7.020004,-3.167999 8.712006,-4.715996c1.547997,-1.692001 1.511993,-3.672005 0.863998,-4.68c-0.828003,-0.972 -2.844002,-1.296005 -5.220001,-1.403999c-2.519997,-0.251999 -6.300003,-0.251999 -9.108002,0c-2.736,0.18 -5.220001,0.395996 -7.307999,0.935997l0,0c0.755997,-2.124001 1.223999,-3.959999 1.692001,-5.508003c0.323997,-1.582993 0.648003,-2.879997 0.683998,-3.886993l0,0z"/>
  <path fill="#ff0000" fill-rule="evenodd" id="path41" d="m107.518997,155.212997c-0.035995,-0.035995 -0.755997,0.828003 -2.015999,2.591995c-1.332001,1.728012 -3.923996,5.004013 -5.832001,7.884003c-2.087997,2.772003 -4.463997,6.012009 -6.155998,8.893005c-1.835999,2.662994 -3.311996,5.291992 -4.283997,7.884003c-1.080002,2.627991 -1.260002,6.011993 -1.512001,7.811996c-0.251999,1.729004 -0.324005,2.520996 -0.071999,2.520996l0,0c3.743996,-3.060989 9.792,-6.119995 18.287994,-9.32399c8.532005,-3.276001 21.852005,-7.09201 32.472,-9.900009c10.512009,-2.87999 22.464005,-5.220001 30.167999,-7.164001c7.488007,-2.052002 11.736008,-3.167999 15.12001,-4.463989c3.311996,-1.439011 4.319,-2.628006 5.112,-3.420013c0.68399,-0.898987 0.286987,-1.475998 -0.64801,-1.29599c-1.007996,0.108002 -2.843994,1.29599 -5.220001,2.195999c-2.520996,0.828003 -6.444,2.483002 -9.251999,3.022995c-2.87999,0.469009 -6.516998,1.115997 -7.30899,-0.143997c-0.899002,-1.511993 1.619995,-5.112 2.556992,-8.028c0.972,-2.916 2.158997,-5.938995 3.022995,-9.216003c0.685013,-3.23999 1.26001,-6.731995 1.440002,-10.332001l0,0c-10.619995,4.320007 -19.619995,7.956009 -27.539993,10.908005c-7.992996,2.916 -13.069,5.003998 -19.513,6.660004c-6.514,1.582993 -12.562004,2.554993 -18.826004,2.914993l0,0z"/>
  <path fill="#ff0000" fill-rule="evenodd" id="path43" d="m67.558998,104.667999c-0.143997,1.223999 0.071999,2.484001 0.648003,3.779999c0.503998,1.260002 1.043999,2.124001 2.736,3.852005c1.620003,1.799995 3.311996,3.708 7.164001,6.264c3.815994,2.339996 9.755997,5.472 15.875999,7.739998c5.975998,2.231003 12.995995,3.671997 20.231995,5.436005c7.272003,1.655991 15.552002,3.779999 22.895996,4.716995c7.128006,0.720001 16.596008,0.216003 19.800003,0.432007c2.952011,0.251999 1.872009,0.68399 -1.29599,1.151993c-3.20401,0.287003 -10.368011,0.936005 -17.460007,1.115005c-7.272003,0.108002 -19.080002,-0.28801 -25.271996,-0.216003c-6.192001,-0.072006 -10.080002,0.071991 -11.664001,0.145004l0,0c4.355995,1.403 7.344002,2.556 9.360001,3.455994c1.835999,0.826996 2.051994,0.432007 2.159996,1.727997c0.036003,1.152008 -0.647995,3.313004 -1.655998,5.507996c-1.152,2.052002 -2.627998,4.428009 -4.823997,6.984009l0,0c5.040001,-0.432999 10.223999,-1.332001 15.947998,-2.699997c5.652,-1.475998 11.268005,-3.456009 17.819992,-5.652008c6.444,-2.26799 15.157013,-5.18399 20.844009,-7.343994c5.580002,-2.160004 9.720001,-4.067001 12.563995,-5.580002l0,0c0,-3.203995 -0.071991,-5.723999 -0.071991,-7.559998c-0.072006,-1.836006 -0.072006,-3.204002 -0.145004,-3.708l0,0c-3.384003,0.215996 -8.712006,0.18 -16.380005,-0.108002c-7.774994,-0.468002 -21.923996,-1.223999 -29.231995,-1.872002c-7.308006,-0.611 -12.780006,-1.187996 -14.040001,-1.727997c-1.296005,-0.685005 2.736,-0.973 6.407997,-1.980003c3.636002,-1.187996 11.052002,-2.951996 15.156006,-4.463997c3.923996,-1.620003 7.955994,-3.312004 8.639999,-4.788002c0.575989,-1.440002 0.468002,-3.312004 -5.041,-3.959999c-5.723999,-0.756004 -20.376007,-0.576004 -28.404007,-0.576004c-8.099998,-0.18 -12.528,-0.035995 -19.655998,0c-7.234001,0 -14.793999,-0.072998 -23.110001,-0.072998l0,0z"/>
  <path fill="#ff0000" fill-rule="evenodd" id="path45" d="m74.974998,116.261002c0.683998,0.395996 2.124001,1.835999 4.860001,4.175995c2.627998,2.304001 7.919998,7.128006 10.872002,9.900009c2.771996,2.556 4.211998,4.679993 6.407997,6.227997c2.160004,1.619995 4.644005,2.772003 7.056,3.455994l0,0c4.644005,-0.143997 10.584,-0.216003 18.360001,-0.216003c7.704002,-0.071991 21.096001,0.396011 27.541008,0c6.299988,-0.575989 10.403992,-2.268997 10.367996,-2.987991c-0.251999,-0.720001 -6.660004,-0.755997 -11.016998,-1.080002c-4.428009,-0.395996 -8.783997,-0.503998 -14.868011,-1.296005c-6.191986,-1.007996 -14.579994,-2.375992 -21.419991,-3.959991c-6.875999,-1.727997 -14.220001,-3.672005 -19.260002,-5.399002c-5.075996,-1.801003 -7.991997,-3.420998 -11.087997,-4.860001c-3.204002,-1.549004 -5.760002,-2.774002 -7.812004,-3.960999l0,0z"/>
  <path fill-rule="evenodd" stroke="#000000" stroke-width="0.036" stroke-miterlimit="10" id="path47" d="m95.135002,106.251999c-0.828003,0.900002 -0.828003,2.520004 -0.828003,4.031998c-0.035995,1.548004 -0.395996,3.312004 0.720001,4.860001c1.008003,1.332001 3.779999,3.132004 5.687996,3.600006c1.836006,0.323997 3.672005,-0.18 5.364006,-1.224007c1.584,-1.079994 3.995995,-3.348 4.175995,-5.003998c0.036003,-1.799995 -1.655998,-3.851997 -3.528,-5.183998c-2.015999,-1.368004 -5.759995,-2.592003 -7.739998,-2.699997c-1.945,-0.143005 -3.133003,0.575996 -3.851997,1.619995l0,0z"/>
  <path fill="#fef787" fill-rule="evenodd" id="path49" d="m95.853996,108.232002c-0.251999,0.900002 -0.467995,2.484001 -0.251999,3.779999c0.108002,1.080002 -0.107994,1.979996 0.900002,2.987999c0.936005,0.863998 2.772003,2.413002 4.536003,2.699997c1.692001,0.217003 4.463997,-0.611 5.255997,-1.223999c0.720001,-0.647995 -0.18,-1.512001 -1.043999,-2.736c-1.115997,-1.403999 -3.528,-4.175995 -4.860001,-5.255997c-1.332001,-1.188004 -2.267998,-1.620003 -2.951996,-1.584c-0.755005,-0.108002 -1.332001,0.432999 -1.584007,1.332001l0,0z"/>
  <linearGradient id="XMLID_7_" y2="0.000009" x2="0.500049" y1="0.999982" x1="0.500049">
   <stop stop-color="#ffe47f" id="stop52" offset="0"/>
   <stop stop-color="#ff7700" id="stop54" offset="1"/>
  </linearGradient>
  <path fill="url(#XMLID_7_)" fill-rule="evenodd" id="path56" d="m105.25,116.801003c0.755997,-0.036003 1.188004,-0.468002 1.727997,-1.008003c0.540001,-0.503998 1.404007,-1.403999 1.476006,-2.304001c-0.071999,-1.223999 -0.792,-2.484001 -1.728004,-3.779999c-1.079994,-1.260002 -3.023994,-2.627998 -4.428001,-3.276001c-1.584,-0.755997 -3.311996,-0.720001 -4.355995,-0.575996c-1.080002,0.215996 -1.620003,0.683998 -1.908005,1.547997c-0.431999,0.683998 -0.467995,1.872002 -0.107994,2.736c0.360001,0.720001 1.007996,1.512001 2.087997,2.375999c0.972,0.863998 2.664001,2.195999 3.959999,3.024002c1.189003,0.683998 2.376999,1.151001 3.276001,1.260002l0,0z"/>
  <path fill="#ff0000" fill-rule="evenodd" id="path58" d="m184.487,164.177002c1.259995,-1.007996 1.548004,-1.440002 2.376007,-2.268997c0.719986,-1.008011 2.015991,-3.096008 2.087997,-3.490997c-0.072006,-0.504013 -0.540009,0.286987 -2.23201,0.972c-1.763992,0.612 -3.742996,1.763992 -8.171997,3.023987c-4.606995,1.188004 -10.800003,2.340012 -18.576004,4.283005c-7.883987,1.871994 -18.467987,4.212006 -28.007996,7.020996c-9.647995,2.664001 -21.923996,6.408005 -28.907997,9c-7.019997,2.447998 -9.972,4.139999 -12.599998,5.903c-2.664001,1.764999 -2.807999,3.240005 -2.952003,4.572006c-0.251999,1.259995 0.576004,2.339996 1.944,2.664001c1.368004,0.108002 3.492004,-0.395996 6.228004,-1.367996c2.556,-1.080002 3.888,-2.340012 9.683998,-4.60701c5.832001,-2.412003 16.811996,-6.479996 25.019997,-9.145004c8.100006,-2.699997 16.165009,-4.751999 23.221008,-6.551987c6.910995,-1.835999 13.858994,-3.024002 18.215988,-3.996002c4.212006,-1.044006 5.004013,-1.188004 7.235001,-2.087997c2.124008,-1.042999 4.031998,-2.952011 5.436005,-3.923004l0,0z"/>
  <path fill="#506e6e" fill-rule="evenodd" id="path60" d="m192.947006,166.660004c0.791992,1.043991 1.584,1.944 2.916,2.699997c1.223999,0.755997 2.304001,1.367996 4.354996,1.692001c2.016998,0.106995 5.005005,0.251999 7.451996,-0.540009c2.305008,-0.827988 4.104004,-2.195999 6.516998,-4.39299c2.231003,-2.376007 4.932007,-5.903 7.270996,-9.468002c2.196014,-3.636002 4.393005,-7.596008 6.300003,-12.022995l0,0c0.828003,-1.152008 1.729004,-1.80101 2.557007,-2.088013c0.862991,-0.32399 1.727997,-0.50499 2.446991,0.432007c0.64801,0.863998 1.045013,2.339996 1.332001,4.572006l0,0c-0.215988,2.735001 -0.826996,5.832001 -1.835999,9.287994c-1.11499,3.384003 -2.591995,7.451004 -4.570999,11.231003c-2.160004,3.707993 -4.968994,7.595993 -7.73999,10.692001c-2.844009,3.022995 -5.688004,5.651001 -8.928009,7.199997c-3.384995,1.296005 -7.272003,1.835999 -10.692001,1.475998c-3.528,-0.360001 -6.947998,-1.223999 -9.720001,-3.167999c-2.80899,-2.016006 -4.967987,-4.824005 -6.768997,-8.567993l0,0c0.145004,-3.20401 0.540009,-5.580002 1.477005,-7.128006c0.862991,-1.619995 2.446991,-2.124008 3.778992,-2.339996c1.333008,-0.359009 2.485001,-0.214005 3.853012,0.432999l0,0z"/>
  <path fill="#284146" fill-rule="evenodd" id="path62" d="m229.451004,133.253006c1.115997,-1.62001 2.052002,-2.952011 2.951996,-4.141006c0.863998,-1.260002 1.548004,-2.231003 2.195999,-3.059998l0,0c0.611008,3.059998 1.007996,6.263992 0.899002,9.899002c-0.106995,3.563995 -0.576004,7.380997 -1.404007,11.593002l0,0c-0.143997,-1.656006 -0.610992,-2.664001 -1.690994,-3.167999c-1.080002,-0.469009 -2.628006,-0.433014 -4.645004,0.251999l0,0c0.540009,-1.296005 0.900009,-2.952011 1.225006,-4.824005c0.287994,-1.871002 0.395996,-4.104004 0.468002,-6.550995l0,0z"/>
  <path fill="#284146" fill-rule="evenodd" id="path64" d="m181.822998,169.108002c0.324005,-0.251999 1.007996,-1.007996 2.195999,-2.124008c1.223999,-1.259995 3.490997,-3.707993 4.716003,-4.82399c1.007996,-1.26001 1.044006,-1.835999 1.511993,-1.727997c0.360001,0.107986 0.504013,1.584 0.972,2.627991c0.432999,0.972 1.009003,2.268005 1.729004,3.600006l0,0c-1.692001,1.261002 -3.167999,2.593002 -4.716003,4.140991c-1.584,1.512009 -2.951996,3.096008 -4.39299,4.896011l0,0c-0.540009,-0.936005 -0.899002,-2.016006 -1.223999,-3.096008c-0.396011,-1.117004 -0.612,-2.233002 -0.792007,-3.492996l0,0z"/>
  <path fill="#b3c3c0" fill-rule="evenodd" id="path66" d="m30.910999,156.977005c-0.755999,1.763992 -1.403999,4.643997 -2.087999,8.783997c-0.719999,4.104004 -1.872,10.367996 -1.944,15.587997c-0.216,5.220001 0.144001,10.475998 1.224001,15.192001c1.151999,4.643997 2.591999,8.567001 5.292,12.059998c2.447998,3.348007 6.335999,6.372009 10.007999,7.811996c3.708,1.188004 8.172001,1.297012 12.132,0.181c3.852001,-1.115997 7.740002,-3.528 10.98,-6.551987c3.096001,-3.240005 5.975998,-7.668015 8.099998,-11.736008c2.052002,-3.923996 3.312004,-7.595993 4.608002,-11.988007c1.223999,-4.679993 2.375999,-10.187988 2.879997,-15.263992c0.468002,-5.112 0.360001,-9.899994 -0.18,-14.796005l0,0l-2.267998,4.932007l0,0c0.036003,5.076004 -0.18,9.755997 -0.792,14.436996c-0.648003,4.5 -1.512001,8.675995 -2.987999,13.104004c-1.584,4.464005 -3.744003,9.647995 -6.335999,13.464005c-2.664001,3.671997 -5.652,6.695999 -9.252003,8.531998c-3.779999,1.655991 -8.747997,2.26799 -12.383999,1.835999c-3.563999,-0.540009 -6.228001,-1.944 -8.82,-4.5c-2.736,-2.628006 -5.759998,-6.300003 -7.128,-10.727997c-1.403999,-4.5 -1.403999,-10.944 -1.26,-15.73201c0.036001,-4.860001 0.972,-9.143997 1.835999,-12.707993c0.720001,-3.564011 1.620003,-6.408005 2.700001,-8.531998l0,0c-0.683998,-1.584 -1.259998,-2.700012 -2.015999,-3.20401c-0.684002,-0.578003 -1.548,-0.685989 -2.304001,-0.181992l0,0z"/>
  <path fill="#d3ddc5" fill-rule="evenodd" id="path68" d="m36.021999,160.973007c-1.512001,3.491989 -2.484001,7.343994 -3.203999,11.699997c-0.828001,4.319 -1.296001,9.395996 -1.008001,14.110992c0.288,4.681 0.504,9.612 2.988001,13.824005c2.34,3.959991 6.947998,9.108002 11.34,10.440002c4.248001,1.223999 10.403999,-0.216003 14.436001,-2.376007c3.852001,-2.304993 6.911999,-6.660004 9.324001,-10.548004c2.375999,-3.995987 4.139999,-8.603989 5.435997,-12.563995c1.152,-3.959991 1.944,-7.235992 2.375999,-10.655991c0.431999,-3.563004 0.576004,-6.804001 0.431999,-10.115005l0,0l-2.375999,7.380005l0,0c-0.431999,3.671997 -1.260002,7.019989 -2.195999,10.475998c-1.008003,3.455994 -2.124001,6.479996 -3.779999,9.612c-1.764,2.807999 -4.031998,5.938995 -6.516003,7.884003c-2.591999,1.90799 -5.903999,3.743988 -8.675999,3.707993c-2.807999,-0.251999 -6.228001,-1.908005 -8.028,-4.391998c-1.871998,-2.557007 -2.736,-6.371994 -3.167999,-10.188004c-0.540001,-3.996002 -0.396,-9.251999 -0.144001,-12.707993c0.072002,-3.456009 0.576,-5.832001 1.116001,-7.524002l0,0c-1.152,-3.490997 -2.34,-5.832001 -3.708,-7.16301c-1.403,-1.404999 -2.951,-1.656998 -4.644001,-0.900986l0,0z"/>
  <path fill="#97adca" fill-rule="evenodd" id="path70" d="m46.462002,133.181c-2.268002,2.123993 -4.356003,4.535995 -6.408001,7.380005c-2.195999,2.843994 -4.284,6.479996 -5.832001,9.360001c-1.619999,2.770996 -2.592001,5.075989 -3.312,7.056l0,0c0.828001,0.612 1.619999,1.223999 2.411999,1.799988l0,0l1.908001,1.584l0,0c1.152,-3.491989 2.484001,-6.587997 3.996002,-9.431992c1.439999,-2.843994 3.059998,-5.255997 4.859997,-7.524002c1.728001,-2.412003 3.492001,-4.5 5.436001,-6.552002l0,0c-0.396,-0.791992 -0.792,-1.367996 -1.332001,-2.015991c-0.538998,-0.576004 -1.114998,-1.225006 -1.727997,-1.656006l0,0z"/>
  <path fill="#bcc7bf" fill-rule="evenodd" id="path72" d="m50.313999,137.753006c1.007999,1.11499 1.728001,2.159988 2.304001,3.419998c0.467999,1.115997 0.756001,2.304001 0.863998,3.707993c0.108002,1.439011 -0.035999,3.02301 -0.287998,4.895996l0,0c-2.34,1.944 -4.032001,4.464005 -5.616001,7.70401c-1.548,3.132004 -2.663998,6.983994 -3.492001,11.412003l0,0c-1.079998,-1.188004 -2.16,-2.412003 -3.528,-3.672012c-1.368,-1.331985 -2.879997,-2.699997 -4.535999,-4.103989l0,0c1.619999,-4.464005 3.383999,-8.279007 5.292,-11.59201c1.872002,-3.455994 4.284,-6.190994 5.868,-8.207993c1.548,-1.979996 2.449001,-3.169006 3.132,-3.563995l0,0z"/>
  <path opacity="0.54" fill="#ffffff" fill-rule="evenodd" id="path74" d="m38.651001,205.792999l7.307999,-6.875992l0,0c0.827999,0.862991 1.619999,1.727997 2.375999,2.303986c0.756001,0.576004 1.332001,1.008011 2.016003,1.296005l0,0l-0.504002,9.072006l0,0c-1.476002,-0.036011 -2.627998,-0.216003 -3.888,-0.540009c-1.152,-0.360001 -2.34,-0.863998 -3.419998,-1.655991c-1.332001,-0.82901 -2.448002,-2.161011 -3.888,-3.600006l0,0z"/>
  <path fill="#a088a0" fill-rule="evenodd" id="path76" d="m45.778999,170.261002c0.108002,-2.016998 0.647999,-4.068008 1.223999,-6.156006c0.576,-2.159988 1.404003,-4.535995 2.484001,-6.444c0.972,-1.978989 2.195999,-3.815002 3.672001,-5.362991l0,0c-0.288002,4.030991 -0.431999,7.343994 -0.431999,10.223999c0,2.735992 -0.432003,4.860001 0.360001,6.768997c0.719997,1.871002 2.231998,3.526993 3.707996,4.570999c1.296001,0.936996 2.664001,1.367996 4.104,1.296005l0,0c-0.216,2.412003 -0.179996,4.177002 0.108002,5.832001c0.251999,1.513 0.18,2.845001 1.332001,3.419998c1.043999,0.539993 2.988003,1.332001 5.004002,-0.251999c1.907997,-1.654999 4.103996,-4.968002 6.587997,-9.792007l0,0c0.288002,0.936996 0.108002,2.447998 -0.540001,4.932999c-0.648003,2.376007 -1.799995,6.443008 -3.311996,9.432007c-1.584,2.987991 -3.744003,5.723999 -6.336002,8.352997l0,0c-5.472,-2.809006 -9.540001,-6.371994 -12.599998,-10.837006c-2.988003,-4.502991 -4.824001,-9.829987 -5.364002,-15.985992l0,0z"/>
  <path fill="#ca9a9a" fill-rule="evenodd" id="path78" d="m45.778999,170.261002c-0.467999,2.268005 -0.792,4.931992 -0.972,7.992004c-0.251999,2.987 -0.792,6.839996 -0.251999,10.187988c0.431999,3.419998 1.475998,7.380005 2.987999,9.792007c1.440002,2.123993 3.420002,3.348999 5.544003,3.671997c2.16,0.251999 4.716,-0.791992 6.695999,-1.584c1.728001,-0.828003 3.096001,-1.906998 3.959999,-3.238998l0,0c-1.043999,-2.593002 -2.231998,-5.076004 -3.708,-7.740005c-1.655998,-2.735992 -3.383999,-5.580002 -5.183998,-8.100998c-1.908001,-2.627991 -3.924,-5.147003 -5.472,-7.020004c-1.548,-1.835999 -2.700001,-3.203995 -3.600002,-3.959991l0,0z"/>
  <path fill="#ff0000" fill-rule="evenodd" id="path80" d="m55.030998,169.468994c0.540001,1.044006 1.332001,1.835999 2.376003,2.376007c1.007999,0.468002 2.447998,1.475998 3.779999,0.684006c1.116001,-0.936005 2.124001,-2.483002 3.600002,-5.615005c1.512001,-3.276001 3.455994,-8.460999 5.292,-13.464996c1.655998,-5.220001 3.563995,-12.132004 4.895996,-16.70401c1.296005,-4.463989 2.195999,-7.884003 2.844002,-10.114998l0,0l-4.428001,-3.528l0,0c-2.591995,9.252007 -5.003998,16.812996 -7.091995,22.96801c-2.160004,5.97699 -3.852005,9.539993 -5.652004,13.463989c-1.908001,3.887009 -3.779999,7.197998 -5.616001,9.934998l0,0z"/>
  <path fill="#ff0000" fill-rule="evenodd" id="path82" d="m47.615002,130.408005c2.843998,2.664001 4.859997,5.436996 6.335999,8.172989c1.403999,2.699005 1.835999,5.436005 2.124001,8.352005c0.251999,2.843994 -0.468002,5.904007 -0.612,8.891998c-0.324001,2.951996 -0.756001,6.335999 -0.864002,8.641006c-0.18,2.052002 -0.035999,3.203995 0.144001,4.283997c0.18,1.044006 0.540001,1.727997 1.080002,2.052002l0,0c1.368,-1.152008 2.807999,-3.061005 4.463997,-6.012009c1.548,-2.916 3.420002,-6.731995 5.220005,-11.592987c1.835999,-5.111008 3.923996,-13.17601 5.435997,-18.216003c1.332001,-5.040009 2.267998,-8.784004 2.807999,-11.628006l0,0c-0.468002,-0.539993 -1.332001,-1.259995 -2.447998,-2.015999c-1.223999,-0.827995 -2.700005,-1.692001 -4.571999,-2.736l0,0c-5.580002,0.972 -9.900002,2.448006 -13.104004,4.428001c-3.275997,1.944 -5.147999,4.356003 -6.011997,7.379005l0,0z"/>
  <path fill="#ff0000" fill-rule="evenodd" id="path84" d="m68.207001,119.32c-2.195999,-1.223999 -4.608002,-2.304001 -7.380001,-3.238998c-2.771999,-1.081001 -5.759998,-2.052002 -9.251999,-2.484001c-3.636002,-0.468002 -8.316002,-0.431999 -11.952,0.108002c-3.672001,0.467995 -6.732002,1.295998 -10.008001,2.879997c-3.492001,1.512001 -7.416,4.104004 -10.115999,6.264c-2.808001,2.160004 -4.824,4.464005 -5.904,6.227997c-1.044001,1.584 -0.792,2.699997 -0.360001,3.348999c0.396001,0.468002 0.504001,0.611008 2.556001,0c1.944,-0.720993 5.58,-2.843994 8.963999,-3.852997c3.348001,-1.007996 7.236,-2.087997 10.548002,-2.124001c3.132,-0.106995 5.868,0.251999 8.208,1.225006c2.231998,0.792 3.743999,1.943001 4.931999,3.599998l0,0c1.691998,-1.764008 3.888,-3.203995 6.587997,-4.751999c2.700001,-1.620003 6.84,-3.240005 9.504005,-4.284004c2.519997,-1.080002 4.427994,-1.512001 5.723999,-1.691002l0,0c-0.684006,-0.398994 -1.368004,-0.793999 -2.052002,-1.226997l0,0z"/>
  <path fill="#d3ddc5" fill-rule="evenodd" id="path86" d="m194.171005,165.257004c0.503998,1.115997 1.547989,1.942993 2.735992,2.770996c1.188004,0.684998 2.628006,1.692001 4.716003,1.764999c1.979996,0.035004 4.931992,-0.181 7.487991,-1.477005c2.483002,-1.475998 5.040009,-3.923996 7.52301,-6.911987c2.412003,-3.096008 5.005005,-7.920013 6.804993,-10.979004c1.584,-3.024002 2.340012,-4.464005 3.238998,-7.09201c0.864014,-2.80899 1.440002,-5.724991 1.872009,-9.181l0,0l-2.087997,2.340012l0,0c-0.720001,3.024002 -1.69101,5.903992 -2.771011,8.496002c-1.151993,2.520996 -2.159988,4.429001 -3.995987,7.092987c-1.980011,2.66301 -5.040009,6.731003 -7.524002,8.855011c-2.520004,1.90799 -5.436005,2.771988 -7.632004,2.987991c-2.304001,0.143997 -4.428009,-0.503998 -6.227997,-1.944l0,0c-1.296997,-0.360001 -2.160004,-0.32399 -2.881012,0.251999c-0.75499,0.503998 -1.077988,1.512009 -1.258987,3.025009l0,0z"/>
  <path fill="#b3c3c0" fill-rule="evenodd" id="path88" d="m194.927002,153.557007c-1.259995,0.467987 -2.124008,1.187988 -2.591995,2.159988c-0.540009,0.828003 -0.720001,1.943008 -0.396011,3.492004c0.359009,1.548004 0.972,3.563004 2.231003,6.048004l0,0c0.863998,-0.721008 1.656006,-1.513 2.376007,-1.980011c0.612,-0.575989 1.332001,-1.007996 1.764999,-1.29599l0,0c-1.044006,-0.936005 -1.944,-2.052002 -2.412003,-3.059998c-0.576004,-1.080002 -0.721008,-2.521011 -0.828003,-3.348999c-0.108002,-0.971008 -0.287994,-1.511002 -0.143997,-2.014999l0,0z"/>
  <path opacity="0.54" fill="#ffffff" fill-rule="evenodd" id="path90" d="m208.498993,162.917007l0.28801,5.579987l0,0c0.647995,-0.32399 1.332001,-0.792999 2.195999,-1.403992c0.755997,-0.612 1.690994,-1.367996 2.664001,-2.268997l0,0l-2.053009,-3.491013l0,0c-0.467987,0.396011 -1.007996,0.611008 -1.475998,0.936005c-0.574997,0.251999 -1.11499,0.466995 -1.619003,0.64801l0,0z"/>
  <path fill="#a088a0" fill-rule="evenodd" id="path92" d="m196.007004,152.873001c1.944,-1.332001 4.356003,-2.951996 7.235992,-4.860001c2.844009,-2.016006 7.344009,-5.076004 9.900009,-6.839996c2.519989,-1.835999 4.139999,-3.061005 5.003998,-3.81601l0,0c1.259995,0.432999 2.446991,0.576004 3.707993,0.576004c1.151001,-0.072006 2.376007,-0.431992 3.527008,-0.936005l0,0c-0.251999,1.619003 -0.972,3.384003 -2.016006,5.688004c-1.080002,2.160004 -2.483994,4.680008 -4.356003,7.559998l0,0c-3.490997,2.809006 -6.658997,5.005005 -9.899002,6.876007c-3.203995,1.83699 -6.264999,3.061005 -9.181,3.960999l0,0c-1.29599,-0.899994 -2.194992,-1.908005 -2.843994,-3.313004c-0.647003,-1.440994 -1.007004,-3.024994 -1.078995,-4.895996l0,0z"/>
  <path fill="#bcc7bf" fill-rule="evenodd" id="path94" d="m199.751007,160.973007c2.016998,-1.584 3.959991,-2.952011 6.228989,-4.248001c2.195007,-1.332001 4.464005,-2.340012 6.804001,-3.456009c2.231003,-1.188004 4.320007,-2.26799 6.408005,-3.384003l0,0c-1.548004,2.59201 -3.167999,4.680008 -4.860001,6.660004c-1.764008,1.906998 -3.888,3.600006 -5.544006,4.680008c-1.763992,0.863998 -3.203995,1.259995 -4.715988,1.187988c-1.512009,0 -2.953003,-0.612 -4.320999,-1.439987l0,0z"/>
  <path fill="#b3c3c0" fill-rule="evenodd" id="path96" d="m174.695007,159.929001c2.159988,-0.072006 4.895996,-0.792007 8.279999,-2.231995c3.419998,-1.439011 7.702988,-3.672012 12.022995,-6.264008c4.319992,-2.628006 9.251999,-5.615997 13.645004,-8.819992c4.427994,-3.20401 7.667999,-4.752014 10.332001,-7.920013c2.664001,-3.167999 0.358994,-5.075989 0.358994,-5.075989l0,0c-3.996002,4.177002 -8.100006,8.063995 -12.852005,11.80899c-4.751999,3.636002 -11.016998,7.632004 -15.299988,10.332001c-4.320007,2.59201 -7.488007,4.067001 -10.332001,5.399002c-2.988007,1.188004 -5.761002,1.872009 -6.805008,2.341003c-1.041992,0.431 -0.826004,0.574005 0.650009,0.431l0,0z"/>
  <path fill="#d3ddc5" fill-rule="evenodd" id="path98" d="m219.587006,130.085007c0.181,-0.072006 0.144989,-0.181 -0.251999,-0.469009c-0.432007,-0.358994 -1.151001,-1.511993 -2.016006,-1.367004c-0.973007,0.10701 -1.440002,0.540009 -3.492004,2.124008c-2.123993,1.548004 -5.435989,4.391998 -9.108002,7.270996c-3.814987,2.844009 -9.68399,7.344009 -13.139999,9.755997c-3.455994,2.269012 -6.011993,3.779999 -7.524002,4.248001l0,0c-2.734985,1.729004 -4.715988,3.20401 -6.370987,4.572006c-1.62001,1.367996 -2.772003,2.483002 -3.313004,3.492004l0,0l5.472,-1.835999l0,0c2.520996,-0.937012 4.968994,-2.269012 7.632996,-3.601013c2.591995,-1.475998 5.074997,-3.059998 7.990997,-4.895996c2.845001,-1.871994 5.688004,-3.419998 9.108002,-5.903992c3.384003,-2.664001 8.064011,-6.804001 10.727997,-9.108002c2.556,-2.303009 3.852005,-3.63501 4.284012,-4.281998l0,0z"/>
  <path fill="#d3ddc5" fill-rule="evenodd" id="path100" d="m228.550995,120.581001c-0.287994,-0.721001 -0.826996,-1.368004 -1.619995,-2.089005c-0.936005,-0.755997 -1.979004,-1.584 -3.274994,-2.195c-1.404007,-0.792 -2.448013,-1.332001 -4.104004,-1.619995c-1.69101,-0.324005 -3.815002,-0.576004 -5.544006,0.071999c-1.835999,0.540001 -3.238998,1.656998 -4.751999,3.348l0,0c-0.395996,1.223999 -0.647003,2.987999 -0.610992,5.147003c-0.036011,2.123993 0.070999,4.787994 0.468002,7.848999l0,0c1.942993,-1.764999 3.707993,-3.061005 5.291992,-3.744003c1.548004,-0.720001 2.916,-1.115997 4.104004,-0.612c1.151993,0.360001 2.016998,1.404007 2.735992,3.132004l0,0c2.484009,-1.403 4.284012,-2.699005 5.544006,-4.283005c1.222,-1.584999 1.761993,-3.205002 1.761993,-5.004997l0,0z"/>
  <path fill="#b3c3c0" fill-rule="evenodd" id="path102" d="m221.242996,129.867996c0.108002,0.576004 0.180008,1.296997 0.072006,2.160004c-0.181,0.755997 -0.432999,1.871994 -0.755997,2.664001c-0.396011,0.720993 -0.792007,1.259995 -1.332001,1.764999l0,0c0.862991,0.287003 1.799988,0.395996 2.807999,0.322998c0.935989,-0.070999 1.944,-0.216003 3.167999,-1.007996c1.188004,-1.007996 3.167999,-2.916 4.139999,-4.60701c0.863998,-1.764999 1.296997,-3.60099 1.151993,-5.363991c-0.143997,-1.800003 -0.791992,-3.492004 -1.944,-5.220001l0,0c-2.410995,3.096001 -4.860001,6.191002 -7.307999,9.286995l0,0z"/>
  <path opacity="0.54" fill="#ffffff" fill-rule="evenodd" id="path104" d="m214.690994,127.204002c-0.035995,-2.052002 -0.108002,-3.672005 -0.360001,-5.147003c-0.251999,-1.512001 -0.646988,-2.627998 -1.187988,-3.491997c-0.612,-0.899002 -1.368011,-1.620003 -2.269012,-2.015999l0,0c0.720001,-0.792 1.584,-1.296005 2.59201,-1.656006c0.972992,-0.360001 2.160004,-0.540001 3.276001,-0.540001c0.972,-0.071999 1.871994,0.036003 2.699997,0.324005l0,0c-0.647995,1.728996 -1.259995,3.527 -1.548004,5.543999c-0.432999,2.015999 -0.539993,3.959999 -0.612,6.227997l0,0c-0.755997,0.036003 -1.332001,0.288002 -1.729004,0.360001c-0.465988,0.179001 -0.753998,0.179001 -0.862,0.395004l0,0z"/>
  <path opacity="0.54" fill="#ffffff" fill-rule="evenodd" id="path106" d="m220.307999,128.141006c0.755997,0.071991 1.690994,-0.792007 2.951004,-2.196007c1.29599,-1.584 2.593002,-3.708 4.429001,-6.767998l0,0c0.251999,0.431999 0.539993,0.898994 0.862991,1.403999c0.21701,0.431999 0.503998,0.899002 0.721008,1.403l0,0c-0.108002,1.872002 -0.936996,3.348999 -2.195999,4.823997c-1.296005,1.404007 -3.313004,2.556 -5.76001,3.600006l0,0c-0.071991,-0.322998 -0.181,-0.827011 -0.32399,-1.115005c-0.145004,-0.468994 -0.469009,-0.720993 -0.684006,-1.151993l0,0z"/>
  <path fill="#a088a0" fill-rule="evenodd" id="path108" d="m207.311996,120.761002c-0.108002,1.115997 -0.035995,2.519997 0.070999,4.354996c0.072006,1.801003 0.324005,3.996002 0.612,6.587997l0,0c-3.563995,3.169006 -6.40799,5.544998 -8.388,7.272003c-2.123993,1.619995 -3.348999,3.456009 -3.671997,3.024002c-0.360001,-0.576004 0.251999,-3.167999 1.403,-5.832001c0.973007,-2.664001 2.880005,-7.740005 4.608002,-10.224998c1.621002,-2.663002 3.457001,-4.247002 5.365997,-5.181999l0,0z"/>
  <path fill="#d3ddc5" fill-rule="evenodd" id="path110" d="m214.511002,112.553001l47.159988,-34.992004l0,0c0.612,-0.360001 1.332001,-0.360001 2.016998,0c0.575012,0.252007 1.332001,0.864006 2.124023,1.836006c0.828003,0.899994 1.871979,2.303993 2.698975,3.383995c0.685028,0.936005 1.188019,1.800003 1.513,2.592003l0,0c-6.947998,5.867996 -13.53598,11.447998 -20.339981,17.136002c-6.73201,5.687996 -13.393005,11.087997 -19.980011,16.596001l0,0c-0.972,-1.979004 -2.087997,-3.492004 -3.491989,-4.536003c-1.403,-1.152 -2.916,-1.655998 -4.824005,-1.944c-1.945007,-0.323997 -4.283997,-0.396004 -6.876999,-0.071999l0,0z"/>
  <path fill="#b3c3c0" fill-rule="evenodd" id="path112" d="m229.667007,118.997002c6.551987,-5.581001 13.140991,-11.052002 19.90799,-16.705002c6.76799,-5.652 13.427994,-11.304001 20.412003,-17.099998l0,0c0.540009,1.223999 0.467987,2.519997 -0.071991,3.743996c-0.647003,1.116005 -0.756012,0.828003 -3.528015,3.600006c-2.843994,2.843994 -7.234985,7.127998 -13.319,13.247993l0,0c-3.636993,3.204002 -7.056992,6.552002 -10.799988,10.440002c-3.779999,3.816002 -7.345001,7.884003 -11.23201,12.348007l0,0c0.540009,-0.611008 0.756012,-1.655006 0.503998,-3.275009c-0.251999,-1.619995 -0.828995,-3.671997 -1.872986,-6.299995l0,0z"/>
  <path opacity="0.54" fill="#ffffff" fill-rule="evenodd" id="path114" d="m228.154999,116.584999l41.147003,-32.652l0,0c0.21701,0.468002 0.540009,0.900002 0.684998,1.295998c0.106995,0.396004 0.324005,0.720001 0.359009,1.116005l0,0c-11.987,11.195999 -21.203003,19.584 -27.792007,25.704002c-6.695007,6.047997 -10.475998,9.323997 -11.770996,10.223999l0,0c-0.324005,-1.116005 -0.64801,-2.304001 -1.115997,-3.167999c-0.468002,-0.901001 -0.972,-1.873001 -1.512009,-2.520004l0,0z"/>
  <path fill="#ef4633" fill-rule="evenodd" id="path116" d="m179.375,147.977005c-1.835999,1.763992 -3.492004,3.455994 -5.112,5.220001c-1.654999,1.692001 -4.283005,4.248001 -4.535004,5.184998c-0.32399,0.828003 -0.071991,1.547989 2.699005,-0.181c2.699997,-1.835999 7.093002,-5.327011 13.319992,-10.619003l0,0c1.440002,-2.557007 3.132004,-6.337006 5.220001,-11.483994c1.980011,-5.364014 4.393005,-14.94001 6.947998,-19.44001c2.340012,-4.535995 3.960007,-3.923996 7.920013,-7.056c3.959991,-3.276001 11.411987,-8.855995 15.839996,-11.879997c4.248001,-3.059998 9.539993,-5.255997 10.043991,-6.155998c0.324005,-0.936005 -2.446991,-0.324005 -7.056,0.287994c-4.608002,0.432007 -13.571991,1.404007 -20.087997,2.520004c-6.623993,0.935997 -13.787994,2.951996 -19.007996,3.564003c-5.292007,0.575996 -8.641006,0.539993 -12.384003,-0.108002c-3.815994,-1.008003 -6.623993,-3.096001 -10.225006,-4.716003c-3.814987,-1.619995 -8.927994,-3.383995 -11.87999,-4.463997c-3.024002,-1.188004 -5.652008,-2.375999 -5.796005,-2.015999c-0.145004,0.467995 2.124008,2.195999 5.003998,4.355995c2.807999,2.052002 7.776001,5.256004 11.59201,7.812004c3.779999,2.411995 7.127991,4.931999 10.619995,7.164001l0,0c3.167999,8.603996 5.328003,16.127998 6.479996,23.255997c1.082001,7.054001 1.261002,13.173996 0.397003,18.755005l0,0zm-1.080002,-44.928001c3.708008,3.419998 6.660004,6.119995 9.395996,8.099998c2.59201,1.944 4.716003,3.167999 6.372009,3.671997l0,0c-1.009003,5.436005 -2.268997,10.223999 -3.779999,14.794998c-1.584,4.429001 -3.419998,8.496002 -5.508011,12.061005l0,0c-1.979996,-8.208008 -3.491989,-15.335999 -4.535995,-21.816002c-1.115997,-6.480003 -1.763,-11.987999 -1.944,-16.811996l0,0zm8.531998,-3.168007c1.188004,2.340004 2.628006,4.32 4.716003,6.084c1.979996,1.800003 4.427994,3.060005 7.343994,4.320007l0,0c4.356003,-3.636002 8.028,-6.804001 11.017014,-9.360001c2.987991,-2.700005 5.146988,-4.644005 6.76799,-6.264l0,0c-6.875992,1.007996 -12.671997,1.835999 -17.675995,2.771996c-5.041,0.900002 -9.001007,1.620003 -12.169006,2.447998l0,0z"/>
  <path fill="#ff5b00" fill-rule="evenodd" id="path118" d="m144.779007,85.768997c-0.504013,0.216003 -0.28801,0.468002 0.791992,1.044006c1.007996,0.431999 2.664001,0.972 5.399002,2.051994c2.628998,1.008003 7.128998,2.700005 10.729004,4.248001c3.455994,1.512001 6.804001,3.744003 10.619995,4.751999c3.852005,0.828003 7.632004,0.972 12.455994,0.576004c4.716003,-0.540001 9.756012,-2.160004 15.948013,-3.204002c6.154999,-1.080002 15.442993,-2.159996 20.662994,-2.807999c5.076004,-0.720001 8.425003,-1.332001 9.647995,-1.152c1.008011,0.108002 -1.29599,1.260002 -2.87999,2.339996c-1.62001,0.936005 -3.672012,2.088005 -6.588013,4.032005c-3.060989,2.051994 -7.955994,5.112 -11.195999,7.631996c-3.23999,2.304001 -6.40799,4.608002 -8.388,6.372002c-2.123993,1.692001 -3.060989,2.195999 -4.067993,3.888c-1.044006,1.620003 -1.115997,2.339996 -2.304001,5.903999c-1.404007,3.528 -3.636002,10.620003 -5.328003,15.012993c-1.763992,4.319 -2.951996,7.560013 -4.535995,10.26001c-1.764008,2.339996 -3.419998,3.23999 -5.112,4.643997c-1.727997,1.513 -3.456009,2.736008 -4.751999,3.960007c-1.439011,1.007996 -3.311996,2.411987 -3.096008,2.411987c0.324005,-0.179993 2.124008,-1.079987 4.572006,-2.699997c2.304001,-1.763992 7.235001,-4.716003 9.358994,-7.056c1.908005,-2.375992 1.656006,-3.276001 2.988007,-6.587997c1.440002,-3.455994 3.313004,-8.927994 5.328003,-13.212006c1.871994,-4.427994 3.671997,-9.107994 5.79599,-12.095993c2.088013,-2.953003 2.988007,-2.665001 6.444,-5.112c3.312012,-2.412003 9.070999,-6.444 13.536011,-9.468002c4.354996,-3.239998 8.459991,-6.299995 13.139999,-9.323997c4.608002,-3.132004 13.355988,-7.884003 14.580002,-8.82c1.043991,-0.900002 -5.400009,2.447998 -7.813004,3.383995c-2.556,0.864006 -1.943008,0.864006 -6.768005,1.656006c-5.003998,0.755997 -15.587997,1.547997 -22.031998,2.519997c-6.371994,0.900002 -10.584,1.655998 -15.947998,2.412003c-5.651001,0.612 -11.268005,1.584 -16.703003,1.259995c-5.436996,-0.539993 -10.151993,-2.267998 -15.264999,-3.779999c-5.255997,-1.512001 -12.132004,-4.283997 -15.335999,-5.112c-3.272003,-0.792999 -3.417007,-0.253998 -3.884995,0.070999l0,0z"/>
  <path fill="#284146" fill-rule="evenodd" id="path120" d="m108.598999,39.868999c1.223999,-1.259998 2.375999,-2.124001 3.599998,-2.447998c1.080002,-0.396 1.548004,0.18 3.348,0.323997c1.836006,-0.071999 5.436005,-0.719997 7.200005,-0.143997c1.475998,0.539997 0.935997,2.375999 2.267998,3.419998c1.368004,0.972 3.132004,2.124001 5.436005,2.627998c2.26799,0.432003 4.860001,1.476002 7.631989,0.360001c2.59201,-1.223999 5.076004,-6.011997 7.993011,-7.127998c2.807999,-1.188 5.615997,-0.647999 8.963989,0.251999c3.313004,0.864002 8.244003,3.348 10.62001,5.112c2.160004,1.764 2.664001,3.456001 2.627991,5.364002c-0.179993,1.799999 -0.863998,3.563999 -2.87999,5.435997c-2.124008,1.836002 -5.328003,5.328003 -9.072006,5.616001c-3.707993,0.108002 -9.576004,-2.916 -13.139999,-4.644001c-3.744003,-1.835999 -5.832001,-4.607998 -8.783997,-5.975998c-3.096008,-1.439999 -6.695999,-2.015999 -8.856003,-2.124001c-2.159996,-0.144001 -2.232002,1.439999 -3.959999,1.403999c-1.907997,-0.216 -5.003998,-1.691998 -6.767998,-2.195999c-1.764,-0.576 -2.412003,-0.900002 -3.492004,-0.972c-1.152,-0.071999 -2.232002,-0.108002 -3.239998,0.288002l0,0c-0.143997,-0.936001 -0.143997,-1.836002 0,-2.556004c0.034996,-0.757 0.250999,-1.475998 0.502998,-2.015999l0,0z"/>
  <path fill="#a0afaf" fill-rule="evenodd" id="path122" d="m139.667007,44.008999c0.647995,-0.431999 1.475998,-0.972 2.627991,-1.764c1.007996,-0.972 2.125,-2.987999 3.889008,-3.708c1.654999,-0.756001 5.79599,-1.043999 6.299988,-0.863998c0.324005,0 -2.520996,0.576 -3.671997,1.043999c-1.115997,0.396 -1.835999,0.648003 -2.987991,1.584c-1.26001,0.936001 -3.167999,2.916 -4.320999,3.852001c-1.26001,0.612 -2.700012,1.007999 -2.952011,0.900002c-0.360001,-0.144001 0.468002,-0.540001 1.116013,-1.044003l0,0z"/>
  <path fill="#a0afaf" fill-rule="evenodd" id="path124" d="m159.179001,56.104c-0.503998,0.324001 -1.764008,1.368 -3.348007,1.332001c-1.799988,-0.108002 -4.715988,-1.044003 -6.659988,-1.692001c-2.052002,-0.827999 -4.428009,-2.088001 -4.751999,-2.375999c-0.359009,-0.18 1.584,0.18 3.060989,0.792c1.512009,0.467999 3.960007,1.439999 5.544006,1.944c1.367996,0.324001 2.194992,0.251999 3.167999,0.18c0.862991,-0.251999 1.979004,-1.152 2.520004,-1.152c0.466995,-0.035 0.898987,0.469002 0.466995,0.972l0,0z"/>
  <path fill="#ff0000" fill-rule="evenodd" id="path126" d="m142.511002,38.068001c0.863998,0.576 -2.160004,2.304001 -3.384003,3.239998c-1.188004,0.864002 -2.447998,1.512001 -4.356003,1.548c-2.160004,-0.143997 -7.127998,-1.548 -8.243996,-2.124001c-1.188004,-0.647999 0.108002,-1.115997 1.403999,-1.548c1.115997,-0.467999 3.384003,-0.863998 5.832001,-1.043999c2.412003,-0.250999 7.738998,-0.646999 8.748001,-0.071999l0,0z"/>
  <path fill="#ff0000" fill-rule="evenodd" id="path128" d="m97.186996,54.196999c1.584007,-1.368 3.348007,-2.519997 5.148003,-3.888c1.800003,-1.367996 3.816002,-3.419998 5.652,-4.067997c1.727997,-0.612 2.699997,-0.360001 4.716003,0.216c1.944,0.396 5.039993,2.304001 7.199997,2.52c2.052002,0.107998 3.059998,-1.512001 5.255997,-1.403999c2.124001,0.035999 5.112,0.863998 7.559998,1.907997c2.268005,0.900002 3.708008,2.34 6.408005,3.924c2.736008,1.403999 6.300003,4.212002 9.576996,5.220001c3.024002,0.900002 6.012009,1.512001 8.820007,1.007999c2.664001,-0.540001 5.328003,-2.231998 7.451996,-3.815998c2.124008,-1.584 3.636002,-3.420002 4.932007,-5.508003l0,0c1.619995,1.008003 2.843994,2.448002 3.671997,3.924004c0.828003,1.439999 1.332001,2.663998 1.080002,5.219997c-0.503998,2.448002 -2.628006,7.308002 -3.600006,9.864002c-1.080002,2.447998 -1.908005,2.916 -2.195999,5.147995c-0.251999,2.160004 1.007996,5.184006 0.432007,7.812004c-0.792007,2.556 -2.231003,4.968002 -4.716003,7.379997l0,0c-2.591995,-1.223999 -5.112,-2.124001 -7.703995,-3.096001c-2.700012,-0.972 -5.184006,-1.764 -7.884003,-2.519997l0,0c1.800003,-1.727997 3.059998,-3.024002 3.384003,-4.031998c0.359985,-1.008003 0.359985,-0.792 -1.116013,-1.980003c-1.654999,-1.403999 -5.146988,-3.456001 -7.991989,-5.615997c-2.880005,-2.195999 -5.76001,-4.644005 -8.928009,-7.344002l0,0c0.792007,-1.584 1.188004,-2.627998 1.188004,-3.528c0,-0.863998 0.324005,-0.827999 -1.259995,-1.548c-1.728012,-0.863998 -5.940002,-2.16 -8.892006,-3.312c-3.096001,-1.296001 -6.120003,-2.987999 -8.928001,-3.708c-2.844002,-0.720001 -4.715996,-0.540001 -7.848,-0.287998c-3.277,0.143997 -6.985001,0.647999 -11.413002,1.511997l0,0z"/>
  <path fill="#ff0000" fill-rule="evenodd" id="path130" d="m98.950996,52.757c2.376007,-0.504002 5.040001,-0.720001 7.848007,-0.792c2.736,-0.18 5.435997,-0.216 8.927994,0.287998c3.456001,0.468002 7.632004,1.980003 11.556,2.736c3.743996,0.648003 7.920006,0.792 11.015999,1.692001c2.988007,0.900002 3.20401,3.167999 6.876007,3.888c3.600998,0.576 9.899994,-0.720001 14.615997,0c4.679993,0.683998 8.927994,2.051998 13.175995,4.248001l0,0c-0.322998,0.972 -0.826996,2.052002 -1.223999,3.096001c-0.431992,1.043999 -1.043991,2.195999 -1.547989,3.311996l0,0c-5.688004,-0.792 -10.944,-1.260002 -16.057007,-1.547997c-5.220001,-0.324005 -9.899002,-0.324005 -14.580002,-0.144005l0,0c-0.576004,-0.360001 -1.259995,-0.972 -2.195999,-1.691994c-0.899994,-0.792 -2.052002,-1.764 -3.311996,-2.916l0,0c0.647995,-1.260002 0.899994,-2.196003 1.043991,-2.952003c0,-0.720001 0.540009,-0.936001 -0.612,-1.475998c-1.29599,-0.684002 -3.959991,-1.440002 -6.623993,-2.268002c-2.807999,-0.900002 -6.660004,-2.16 -9.324005,-2.807999c-2.627998,-0.684002 -4.067993,-1.080002 -6.407997,-1.188c-2.556,-0.18 -5.255997,-0.036003 -7.956001,0.143997c-2.627998,0.072002 -5.183998,0.216 -7.667999,0.431999l0,0c0.792,-0.683998 1.621002,-1.368999 2.448997,-2.051998l0,0z"/>
  <path fill="#506e6e" fill-rule="evenodd" id="path132" d="m105.322998,63.952999c-0.360001,1.116001 -0.467995,2.088001 -0.323997,2.771999c0.108002,0.648003 0.468002,1.116005 1.080002,1.403999l0,0c0.215996,0.900002 0.215996,2.088005 -0.144005,3.708c-0.360001,1.655998 -0.972,3.420006 -1.835999,5.832001l0,0c-4.571999,0.18 -8.279999,0.288002 -11.267998,0.324005c-3.059998,-0.072006 -5.220001,0.143997 -6.480003,-0.468002c-1.295998,-0.756004 -2.591995,-2.124001 -1.367996,-3.708c1.043999,-1.692001 4.788002,-4.391998 8.171997,-6.012001c3.456001,-1.620003 7.380005,-2.952003 12.167999,-3.852001l0,0z"/>
  <path fill="#97adca" fill-rule="evenodd" id="path134" d="m86.207001,68.417c0.900002,-2.304001 2.087997,-4.356003 3.564003,-6.012001c1.331993,-1.727997 2.879997,-3.203999 5.075996,-4.284c2.087997,-1.151997 5.580002,-2.303997 7.991997,-2.627998c2.412003,-0.360001 4.572006,-0.360001 6.480003,0.287998l0,0c-0.396004,2.52 -1.512001,4.284 -3.059998,5.724003c-1.692001,1.223999 -3.996002,1.295998 -6.624001,2.303997c-2.772003,1.008003 -7.164001,2.664001 -9.431999,3.852005c-2.268005,1.115997 -3.600006,2.736 -4.139999,2.916c-0.685005,0.107994 -0.685005,-0.612007 0.143997,-2.160004l0,0z"/>
  <path fill="#87b9f0" fill-rule="evenodd" id="path136" d="m108.417999,63.053001c-0.540001,1.547997 -0.648003,1.872002 1.080002,2.916c1.619995,0.935997 5.940002,2.087997 8.783997,2.916c2.807999,0.720001 5.616005,2.484001 7.992004,1.547997c2.268005,-1.115997 4.716003,-5.652 5.543991,-7.379997c0.720001,-1.692001 0.828003,-1.872002 -1.223999,-2.772003c-2.195999,-1.151997 -8.315994,-2.556 -11.411995,-3.239998c-2.987999,-0.720001 -5.112,-1.619999 -6.767998,-0.612c-1.906998,1.007999 -3.563004,4.931 -3.996002,6.624001l0,0z"/>
  <path fill="#d7f0e6" fill-rule="evenodd" id="path138" d="m131.207001,75.077003c-0.503998,2.339996 -0.503998,4.5 0,6.623993c0.468002,2.052002 1.080002,3.492004 2.951996,5.688004c1.727997,2.124001 5.112,5.040001 7.524002,6.947998c2.304001,1.800003 4.932999,3.276001 6.479996,3.996002c1.440002,0.575996 2.340012,0.143997 2.304001,-0.323997c-0.143997,-0.612 -0.68399,-1.260002 -2.591995,-2.916c-2.052002,-1.728004 -6.983994,-4.176003 -8.964005,-6.948006c-1.979996,-2.916 -2.807999,-6.011993 -2.627991,-9.863998l0,0c-1.692001,-1.044998 -3.38501,-2.124001 -5.076004,-3.203995l0,0z"/>
  <path fill="#d7f0e6" fill-rule="evenodd" id="path140" d="m129.658997,71.043999c1.548004,1.295998 3.348007,2.736 5.544006,4.32c2.231995,1.548004 5.255997,3.744003 7.416,5.076004c2.015991,1.223999 3.457001,2.051994 4.463989,2.484001l0,0l3.384003,-3.564003l0,0c-3.959991,-2.807999 -7.271988,-5.220001 -10.332001,-7.379997c-3.024002,-2.196007 -5.687988,-3.996002 -7.847992,-5.544006l0,0c-0.863998,1.513 -1.727997,3.061005 -2.628006,4.608002l0,0z"/>
  <path fill="#284146" fill-rule="evenodd" id="path142" d="m171.130997,74.751999c3.708008,-0.215996 7.416,-0.215996 11.557007,-0.143997c4.067001,0.071999 8.136002,0.323997 12.636002,0.755997l0,0c-2.23201,3.024002 -4.284012,5.903999 -6.300003,8.784004c-2.053009,2.879997 -3.960007,5.472 -5.725006,8.171997l0,0c-1.403,0.468002 -2.951996,0.576004 -4.787994,0.468002c-1.871002,-0.18 -3.923996,-0.648003 -6.154999,-1.403999l0,0c0.720001,-2.088005 0.828003,-4.248001 0.610992,-6.480003c-0.358994,-2.447998 -2.052002,-5.507996 -2.304001,-7.236c-0.287994,-1.691002 -0.179993,-2.664001 0.468002,-2.916l0,0z"/>
  <path fill="#284146" fill-rule="evenodd" id="path144" d="m173.436005,51.640999c1.584,-0.323997 2.916,-0.827999 3.994995,-1.223999c1.080002,-0.431999 1.764999,-1.043999 2.341003,-1.548l0,0c3.815002,4.535999 8.496002,7.056 14.472,7.848c5.940002,0.540001 14.399994,-1.511997 20.807999,-3.528c6.229004,-2.051998 10.800995,-4.5 16.632996,-8.028c5.831009,-3.563999 11.66301,-7.883999 18.035004,-13.104l0,0c1.979996,1.188 3.061005,2.880001 3.384995,4.931999c0.322998,2.016003 0.036011,5.364002 -1.692001,7.416c-1.944,2.016003 -6.047989,2.952 -9.539993,4.464001c-3.600006,1.368 -8.279999,2.052002 -11.412003,3.852001c-3.203995,1.691998 -4.319,3.708 -7.235001,6.48c-2.916,2.736 -6.408005,7.415997 -10.477005,9.864002c-4.247986,2.231995 -10.007996,3.563995 -14.651993,4.139999c-4.643997,0.575996 -8.964005,-0.648003 -13.391998,-0.612c-4.608002,-0.071999 -9.287994,-0.071999 -14.040009,0.143997l0,0c2.160004,-3.059998 3.600006,-5.832001 4.464005,-8.459999c0.684998,-2.771999 0.612,-5.292 0.324005,-7.416c-0.253998,-2.124001 -0.973999,-3.817001 -2.016998,-5.220001l0,0z"/>
  <path fill="#506e6e" fill-rule="evenodd" id="path146" d="m179.770996,48.868999c-0.035995,1.512001 1.223999,2.952 3.384003,4.464001c2.195999,1.475998 5.255997,3.708 9.863998,4.32c4.535004,0.431999 10.835999,0.145 17.100006,-1.548c6.119995,-1.764 13.067993,-4.787998 19.727997,-8.784c6.660004,-4.139999 13.104004,-9 19.871994,-15.264l0,0l-3.671997,-0.935999l0,0c-6.731003,2.988001 -14.039993,5.255999 -22.067001,7.092001c-8.171997,1.691998 -19.584,3.059998 -26.028,3.563999c-6.444,0.431999 -10.403992,0.324001 -12.167999,-0.612l0,0c-1.729004,2.195999 -3.024002,3.888 -4.031998,5.219997c-1.044998,1.223003 -1.656998,2.052002 -1.981003,2.484001l0,0z"/>
  <path fill="#a0afaf" fill-rule="evenodd" id="path148" d="m185.783005,41.165001c1.692001,-2.412003 3.311996,-4.284 4.860001,-5.760002c1.475998,-1.439999 2.87999,-2.483997 4.21199,-2.987999l0,0c5.615005,0.827999 11.159012,0.972 16.919998,0.431999c5.688004,-0.612 11.412003,-1.872 17.315002,-3.924l0,0c4.824005,0.072001 8.604004,0.360001 11.484009,0.720001c2.770996,0.323999 4.643997,0.864 5.472,1.476l0,0c-1.872009,1.547998 -5.184006,3.059999 -10.080002,4.679998c-5.040009,1.620003 -12.02301,3.636002 -19.296005,4.932003c-7.380005,1.079998 -19.007996,1.944 -24.190994,2.051998c-5.184006,0.035999 -7.416,-0.504002 -6.695999,-1.619999l0,0z"/>
  <path fill="#bcc7bf" fill-rule="evenodd" id="path150" d="m194.854996,32.417c1.69101,-1.296 3.996002,-2.195999 6.768005,-2.844c2.880005,-0.684 6.300003,-1.115999 9.828003,-1.152c3.276001,-0.18 6.912003,0.072001 9.935989,0.216002c2.916,0.035999 5.437012,0.179998 7.70401,0.287998l0,0c-1.439011,0.900002 -3.563004,1.764 -6.372009,2.592001c-2.916,0.828001 -6.839996,1.836 -10.654999,2.196001c-3.923996,0.251999 -9.468994,-0.144001 -12.312988,-0.360001c-2.880005,-0.216 -4.464005,-0.577 -4.896011,-0.936001l0,0z"/>
  <path fill="#506e6e" fill-rule="evenodd" id="path152" d="m225.238998,26.296c3.311996,-1.476 6.695999,-2.52 10.007996,-3.563999c3.276001,-1.008001 6.012009,-1.872 9.863998,-2.448c3.815002,-0.720001 9.468002,-1.512001 12.779999,-1.26c3.203003,0.143999 5.544006,0.827999 6.479004,2.628c0.756012,1.907999 -0.03598,5.147999 -1.548004,8.171999c-1.511993,2.844 -4.175995,5.724001 -7.703995,8.784002l0,0c-0.899994,-3.852001 -2.519989,-6.624002 -4.463989,-8.460001c-2.052002,-1.872 -3.601013,-2.052 -7.70401,-2.628c-4.246994,-0.684 -10.151001,-1.043001 -17.710999,-1.224001l0,0z"/>
  <path fill="#284146" fill-rule="evenodd" id="path154" d="m222.755005,26.296c2.087997,-3.275999 3.996002,-6.011999 6.013,-8.496c1.942993,-2.483999 3.707993,-5.039999 5.687988,-6.299999c1.764008,-1.296 3.20401,-1.764 5.723999,-1.548c2.557007,0.036 5.688004,0.828 9.540009,1.98c3.815994,1.044 10.549011,2.268 13.247986,4.644c2.521027,2.34 2.557007,6.624001 2.484009,9.539999c-0.179993,2.772001 -1.152008,4.968 -2.915985,7.416002c-1.90802,2.411999 -6.192017,4.967999 -7.560013,7.091999c-1.367996,2.051998 -1.296997,4.211998 -0.468994,5.076c0.755997,0.756001 2.447983,1.475998 4.932999,-0.612c2.303986,-2.232002 6.730988,-8.892002 9.395996,-12.492001c2.557007,-3.708 5.687988,-6.552 6.480011,-9.072001c0.755981,-2.52 0.467987,-3.455999 -1.835999,-5.868c-2.412018,-2.52 -7.451996,-6.84 -12.348999,-8.928c-5.111023,-2.16 -12.708008,-3.348 -17.244019,-3.852c-4.5,-0.612 -7.091995,-0.36 -9.574997,0.612c-2.627991,0.972 -3.707993,2.664001 -5.867996,5.22c-2.339996,2.556 -5.399994,6.948 -7.236008,9.864c-1.835999,2.664 -3.167999,5.004 -3.85199,6.623999l0,0c1.367996,0.324001 2.446991,0.252001 3.384003,0.18c0.863998,-0.178999 1.582993,-0.539999 2.014999,-1.08l0,0z"/>
  <path fill="#ff0000" fill-rule="evenodd" id="path156" d="m274.846985,27.341l-7.559998,10.296001l0,0c-1.043976,5.292 -2.843994,10.403999 -5.543976,15.731998c-2.700012,5.292 -5.723999,11.376003 -10.476013,15.731998c-5.005005,4.248001 -11.593002,7.667999 -18.505005,9.684006c-6.875992,1.943993 -14.326996,2.519997 -22.5,1.871994l0,0l-6.623993,10.008003l0.001007,0c8.746994,-1.043999 15.946991,-2.015999 21.742996,-2.916c5.651993,-0.900002 8.063995,-0.900002 12.779999,-2.627998c4.751999,-1.944 11.052002,-5.184006 15.408005,-8.172005c4.139984,-3.023994 6.876007,-5.687996 9.863983,-9.540001c3.096008,-3.959995 5.688019,-8.855995 8.171997,-13.571995c2.268005,-4.896 4.536011,-10.800003 5.544006,-14.652c0.899017,-3.888 0.540009,-6.048 0.179993,-7.992001c-0.431,-2.052 -1.258972,-3.240002 -2.483002,-3.852001l0,0z"/>
  <path fill="#ff0000" fill-rule="evenodd" id="path158" d="m252.490997,45.988998c0.035995,0.576 0.324005,1.080002 1.26001,1.512001c0.827988,0.288002 2.159988,1.476002 3.852997,0.936001c1.619995,-0.540001 3.671997,-1.872002 6.011993,-3.995998l0,0c-2.520996,6.947998 -5.507996,12.851997 -9.108002,17.711998c-3.707993,4.751999 -7.595993,8.459999 -12.636002,11.267998c-5.220001,2.736 -12.707993,4.104004 -18.035995,5.220001c-5.472,0.972 -9.972,1.223999 -14.039993,0.756004l0,0l-8.460007,11.267998l0,0c-2.807999,0.755997 -5.580002,1.223999 -8.171997,1.547997c-2.699997,0.251999 -5.220001,0.251999 -7.703995,0l0,0c1.979996,-3.491997 3.888,-6.444 6.011993,-9.251999c2.089005,-2.771996 4.104004,-5.183998 6.337006,-7.236l0,0c4.967987,-0.827995 9.322998,-2.015999 13.067001,-3.708c3.671997,-1.799995 6.155991,-3.816002 9.107986,-6.479996c2.844009,-2.736004 5.292007,-7.164001 8.460007,-9.396004c3.274994,-2.267998 7.199997,-3.239998 10.656006,-4.32c3.274994,-1.152 6.76799,-2.267998 9.070999,-3.059998c2.231995,-1.044003 3.671997,-1.872002 4.319992,-2.772003l0,0z"/>
  <path fill="#bcc7bf" fill-rule="evenodd" id="path160" d="m270.095001,59.561001c-0.539001,1.079998 -1.11499,2.195999 -1.871002,3.492001c-0.756989,1.223999 -1.691986,2.519997 -2.664001,3.888l0,0c2.230988,0.863998 4.212006,1.584 5.938995,2.015999c1.692017,0.431999 2.951996,0.972 4.320007,0.503998c1.223999,-0.647995 3.562988,-2.807999 3.527008,-3.959999c-0.106995,-1.295998 -2.304016,-2.16 -3.815002,-3.132c-1.511017,-1.008999 -3.420013,-1.944 -5.436005,-2.807999l0,0z"/>
  <path fill="#c20000" fill-rule="evenodd" id="path162" d="m275.459015,60.424999c1.871979,-0.503998 3.312988,-0.576 4.751984,-0.360001c1.29599,0.252003 2.447998,0.792 3.312988,1.764c0.756012,0.828003 1.116028,2.52 1.368011,3.708004c0.179993,1.079994 0.252014,2.159996 -0.181,3.096001c-0.575989,0.972 -1.979004,2.124001 -2.951996,2.627998c-1.080017,0.395996 -2.123993,0.071999 -3.131989,0c-1.116028,-0.144005 -2.016022,-0.431999 -3.096008,-0.863998l0,0c1.835999,-0.900002 3.167999,-1.836006 3.996002,-2.664001c0.755981,-0.792 1.187988,-1.655998 0.863983,-2.447998c-0.432983,-0.972 -2.231995,-2.592003 -3.061005,-3.312004c-0.862976,-0.864998 -1.437988,-1.332001 -1.870972,-1.548l0,0z"/>
  <path fill="#506e6e" fill-rule="evenodd" id="path164" d="m89.446999,131.921005l3.239998,2.770996l0,0c0,3.097 -0.359993,5.725006 -1.079994,8.028c-0.828003,2.195999 -2.556,5.615997 -3.240005,5.544006c-0.719994,-0.252014 -0.972,-3.420013 -0.755997,-6.156006c0.143997,-2.770996 0.755997,-6.119995 1.835999,-10.186996l0,0z"/>
  <path fill="#506e6e" fill-rule="evenodd" id="path166" d="m93.911003,136.384995l1.871994,1.872009l0,0c-0.18,2.735001 -0.467995,5.615997 -1.259995,8.927994c-0.792,3.20401 -1.872002,6.695999 -3.240005,10.475998l0,0c-0.18,-1.835999 -0.431999,-3.238998 -0.755997,-4.643997c-0.396004,-1.367996 -0.863998,-2.591995 -1.403999,-3.528l0,0c1.547997,-2.015991 2.736,-4.175995 3.563995,-6.335999c0.828003,-2.160995 1.188004,-4.464996 1.224007,-6.768005l0,0z"/>
  <path fill="#506e6e" fill-rule="evenodd" id="path168" d="m97.763,139.768997c-1.260002,5.328003 -2.340004,9.64801 -3.239998,12.960007c-0.900002,3.203995 -2.268005,5.507996 -2.160004,6.768997c0,1.259995 1.332001,1.800003 2.340004,0.791992c0.935997,-1.187988 2.483994,-4.355988 3.528,-7.560989c0.972,-3.276001 1.691994,-7.128006 2.304001,-11.699997l0,0c-0.900002,-0.396011 -1.836006,-0.82901 -2.772003,-1.26001l0,0z"/>
  <path fill="#506e6e" fill-rule="evenodd" id="path170" d="m101.793999,142.108002l2.592003,0.612l0,0c0.108002,0.503998 0.215996,1.367996 0.18,2.591995c-0.036003,1.26001 -0.144005,2.807999 -0.324005,4.645004c-0.287994,1.727997 -0.647995,3.671997 -1.079994,5.544006c-0.576004,1.727997 -1.152,3.888 -2.015999,5.219986c-0.864006,1.224014 -2.340004,2.556 -3.060005,2.628006c-0.900002,0.035995 -1.692001,-0.828003 -1.547997,-2.447998c0.18,-1.835999 1.979996,-4.5 2.916,-7.703995c0.828995,-3.133011 1.656998,-6.876999 2.339996,-11.089005l0,0z"/>
  <path fill="#506e6e" fill-rule="evenodd" id="path172" d="m106.546997,143.619995c1.512001,-0.179993 2.592003,0.181 3.096001,0.792999c0.468002,0.575012 0.792,1.044006 0,3.060013c-0.863998,1.944 -2.411995,4.82399 -4.787994,8.639999l0,0c0.827995,-3.456009 1.439995,-6.048004 1.691994,-8.172012c0.252007,-2.125 0.252007,-3.563995 0,-4.320999l0,0z"/>
  <path fill="#506e6e" fill-rule="evenodd" id="path174" d="m93.154999,163.061005c1.872002,0.720001 2.844002,1.692001 2.916,2.916c0.036003,1.187988 -1.764,2.807999 -2.627998,4.319992c-0.900002,1.403 -1.872002,2.844009 -2.772003,4.319l0,0c0.360001,-2.556 0.720001,-4.822998 0.792,-6.804001c-0.035995,-2.087997 -0.467995,-4.427994 -0.18,-5.220001c0.288002,-0.791992 0.863007,-0.68399 1.872002,0.469009l0,0z"/>
  <path fill="#506e6e" fill-rule="evenodd" id="path176" d="m64.787003,96.785004c-1.116001,1.367996 -2.088001,3.599998 -2.916004,6.299995c-0.827999,2.844002 -1.727997,6.012001 -2.303997,10.188004l0,0c4.067997,1.403999 7.379997,2.951996 10.619995,4.931999c3.024002,1.907997 5.832001,4.068001 8.028,6.624001l0,0l0.756004,-3.239006l0,0c-4.211998,-2.808998 -7.344002,-5.579994 -9.540001,-8.315994c-2.304001,-2.916 -2.844002,-5.508003 -3.564003,-8.316002c-0.827995,-2.737 -1.187996,-5.509003 -1.079994,-8.172997l0,0z"/>
  <path fill="#506e6e" fill-rule="evenodd" id="path178" d="m54.311001,92.140999c-1.512001,-0.755997 -3.312,-1.260002 -5.400002,-1.367996c-2.16,-0.18 -4.571999,-0.072006 -7.380001,0.323997l0,0c-1.835999,3.239998 -3.383999,6.084 -4.787998,8.928001c-1.476002,2.699997 -3.312,5.543999 -3.708,7.703995c-0.504002,2.088005 -0.144001,3.780006 0.936001,5.076004l0,0c2.916,-0.576004 5.543999,-0.935997 8.172001,-1.223999c2.556,-0.323997 4.967999,-0.431999 7.236,-0.468002l0,0c0.216,-3.419998 0.683998,-6.515999 1.548,-9.720001c0.827999,-3.167999 1.906998,-6.299995 3.383999,-9.251999l0,0z"/>
  <path fill="#ca9a9a" fill-rule="evenodd" id="path180" d="m35.662998,91.097c-1.799999,1.800003 -3.059998,3.599998 -4.175999,5.832001c-1.152,2.195999 -2.052,4.608002 -2.303999,6.947998c-0.288,2.232002 0.396,4.788002 0.792,6.155998c0.323999,1.260002 0.827999,1.728004 1.368,1.403999l0,0c-0.468,-1.079994 -0.360001,-2.627998 0.323999,-4.5c0.684002,-1.943993 2.231998,-4.247993 3.528,-6.911995c1.223999,-2.736 2.411999,-5.723999 3.708,-9.108002l0,0c-1.079998,0.036003 -2.16,0.107002 -3.240002,0.18l0,0z"/>
  <path fill="#ca9a9a" fill-rule="evenodd" id="path182" d="m56.001999,93.400002c-1.115997,2.807999 -2.087997,5.220001 -2.771999,7.379997c-0.792,1.944 -1.403999,3.599998 -1.692001,5.256004c-0.323997,1.764 -0.323997,3.311996 -0.143997,5.075996l0,0c1.368,0.288002 2.591999,0.396004 3.528,0.612c0.863998,0.143997 1.584,0.251999 2.015999,0.323997l0,0c1.043999,-5.075996 2.015999,-8.855995 2.916,-11.736c0.792,-2.879997 1.692001,-4.571999 2.304001,-5.219994l0,0c-1.476002,-0.576004 -2.700001,-0.936005 -3.672001,-1.224007c-1.078999,-0.323997 -1.907001,-0.431 -2.484001,-0.467995l0,0z"/>
  <path fill="#ca9a9a" fill-rule="evenodd" id="path184" d="m81.130997,123.892998l6.156006,6.336006l0,0c-1.044006,6.875992 -2.304001,13.356003 -4.32,19.584c-1.980003,6.229004 -5.364006,12.779999 -7.380005,17.567993c-2.159996,4.60701 -3.348,7.919998 -5.075996,10.475998c-1.872002,2.557007 -3.996002,3.996002 -5.400002,4.464005c-1.439999,0.216003 -2.231998,-1.080002 -2.771999,-2.483002c-0.576,-1.440002 -0.504002,-3.203995 -0.18,-5.688004l0,0c2.735996,-3.599991 5.112003,-7.667999 7.271999,-12.347992c2.052002,-4.716003 3.384003,-9.395996 5.363998,-15.695999c1.980003,-6.410004 3.996002,-13.681 6.335999,-22.213005l0,0z"/>
  <path fill="#a088a0" fill-rule="evenodd" id="path186" d="m85.595001,132.209c0,0.574997 -2.160004,10.654999 -3.852005,16.199005c-1.871994,5.436996 -4.031998,10.979996 -6.479996,16.199997c-2.520004,5.076004 -6.155998,12.024002 -7.991997,14.328003c-1.980003,2.159988 -3.420002,1.29599 -2.772003,-0.936005c0.755997,-2.341003 4.32,-7.199997 7.236,-12.636993c2.736,-5.508011 6.984001,-14.508011 9.395996,-20.052002c2.340004,-5.686005 4.247002,-13.570999 4.464005,-13.102005l0,0z"/>
  <path fill="#fef787" fill-rule="evenodd" id="path188" d="m23.674999,93.761002c-1.188,0.792 -2.015999,1.619995 -2.195999,2.484001c-0.323999,0.827995 -0.468,1.584 0.684,2.556c1.152,0.935997 3.096001,1.799995 6.120001,2.879997l0,0c0.323999,-1.008003 0.467999,-1.764 0.719999,-2.267998c0.18,-0.504005 0.323999,-0.972 0.431999,-1.008003l0,0c-2.268,-1.727997 -3.816,-2.807999 -4.788,-3.636002c-1.007999,-0.719994 -1.333,-1.187996 -0.972,-1.007996l0,0z"/>
  <linearGradient id="XMLID_8_" y2="-0.000058" x2="0.499949" y1="0.99997" x1="0.499949">
   <stop stop-color="#ffe47f" id="stop191" offset="0"/>
   <stop stop-color="#ff7700" id="stop193" offset="1"/>
  </linearGradient>
  <path fill="url(#XMLID_8_)" fill-rule="evenodd" id="path195" d="m22.882999,94.264999c0.288,-0.431999 0.756001,-0.900002 1.404001,-1.260002c0.647999,-0.467995 0.972,-0.899994 2.483999,-1.007996c1.440001,-0.071999 3.348,-0.108002 6.012001,0.288002l0,0c-1.080002,1.547997 -1.908001,2.807999 -2.484001,3.923996c-0.612,1.043999 -0.972,1.907997 -1.08,2.592003l0,0c-1.403999,-0.972 -2.628,-1.764 -3.671999,-2.520004c-1.116001,-0.756996 -1.908001,-1.475998 -2.664001,-2.015999l0,0z"/>
  <path fill="#d3ddc5" fill-rule="evenodd" id="path197" d="m28.283001,68.345001c1.151999,-1.475998 2.771999,-2.520004 4.860001,-3.276001c1.98,-0.792 5.255997,-1.043999 7.452,-1.152c2.051998,-0.18 3.779999,-0.216 5.615997,0.288002c1.944,0.467995 3.888,1.223999 5.544003,2.411995c1.475998,1.008003 2.879997,2.772003 3.383999,4.176003c0.396,1.475998 0.108002,2.736 -0.863998,4.32l0,0c-1.188,-3.239998 -2.808002,-5.400002 -5.148003,-6.875999c-2.34,-1.403999 -5.903999,-1.835999 -8.747997,-1.727997c-2.952003,-0.072006 -6.480003,0.792 -8.640001,1.475998c-2.196001,0.503998 -3.708,1.979996 -4.248001,2.087997c-0.575998,0.035004 -0.359999,-0.540001 0.792002,-1.727997l0,0z"/>
  <linearGradient id="XMLID_9_" y2="-0.000012" x2="0.500026" y1="1.000038" x1="0.500026">
   <stop stop-color="#feff7f" id="stop200" offset="0"/>
   <stop stop-color="#bfe9ff" id="stop202" offset="1"/>
  </linearGradient>
  <path fill="url(#XMLID_9_)" fill-rule="evenodd" id="path204" d="m37.209999,67.587997c-2.591999,0.360001 -4.139999,0.792 -5.4,1.296005c-1.26,0.503998 -3.024,1.223999 -3.816,2.231995c-0.827999,1.008003 -1.115999,2.592003 -1.007999,3.708c0.108,1.116005 0.612,2.088005 1.548,2.952003l0,0c3.888,-2.052002 7.667999,-3.276001 11.880001,-3.528c4.139999,-0.323997 8.171997,0.251999 12.635998,1.727997l0,0c-1.007999,-2.699997 -2.34,-4.68 -4.139999,-6.084c-1.835999,-1.403999 -4.068001,-2.231995 -6.695999,-2.339996l0,0c0.000999,0.000999 -2.375,-0.287003 -5.004002,0.035995l0,0z"/>
  <linearGradient id="XMLID_10_" y2="-0.000069" x2="0.50002" y1="0.999844" x1="0.50002">
   <stop stop-color="#fdff3f" id="stop207" offset="0"/>
   <stop stop-color="#5fb1ff" id="stop209" offset="1"/>
  </linearGradient>
  <path fill="url(#XMLID_10_)" fill-rule="evenodd" id="path211" d="m28.606001,71.728996c0.863998,-0.719994 3.132,-2.195999 5.544001,-2.771996c2.375999,-0.648003 6.191998,-0.900002 8.675999,-0.612c2.447998,0.395996 5.112,1.979996 5.616001,2.519997c0.323997,0.251999 -1.728001,-0.215996 -3.528,-0.287994c-1.944,-0.108002 -4.68,-0.324005 -7.380001,0.035995c-2.736,0.323997 -7.344,1.872002 -8.82,2.124001c-1.511002,0.071999 -1.079,-0.361 -0.108,-1.008003l0,0z"/>
  <linearGradient id="XMLID_11_" y2="-0.000024" x2="0.499988" y1="0.99998" x1="0.499988">
   <stop stop-color="#ffdfeb" id="stop214" offset="0"/>
   <stop stop-color="#fff67f" id="stop216" offset="1"/>
  </linearGradient>
  <path fill="url(#XMLID_11_)" fill-rule="evenodd" id="path218" d="m28.174999,77.345001c0.648001,0.935997 1.440001,1.835999 2.376001,2.699997c0.827999,0.792 1.511999,1.584 3.024,2.232002c1.548,0.575996 3.492001,1.692001 5.975998,1.835999c2.304001,0.071999 5.832001,-0.251999 8.064003,-0.972c2.087997,-0.863998 3.995998,-2.267998 4.896,-3.636002c0.792,-1.332001 0.863998,-2.843994 0.216,-4.391998l0,0c-3.240002,-1.080002 -6.444,-1.655998 -9.468002,-1.727997c-3.132,-0.108002 -6.551998,0.287994 -9,1.043999c-2.483999,0.612 -4.607998,1.584 -6.084,2.916l0,0z"/>
  <linearGradient id="XMLID_12_" y2="-0.000094" x2="0.500021" y1="0.999891" x1="0.500021">
   <stop stop-color="#ed9fff" id="stop221" offset="0"/>
   <stop stop-color="#fff67f" id="stop223" offset="1"/>
  </linearGradient>
  <path fill="url(#XMLID_12_)" fill-rule="evenodd" id="path225" d="m33.646,77.417c-1.439999,0.431999 -1.223999,1.547997 -0.18,2.375999c1.007999,0.792 3.600002,1.907997 5.832001,2.232002c2.124001,0.143997 5.220001,-0.216003 6.911999,-0.936005c1.620003,-0.899994 3.384003,-2.987999 2.771999,-3.743996c-0.719997,-0.828003 -4.427998,-0.683998 -6.947998,-0.683998c-2.663002,-0.036003 -6.948002,0.214996 -8.388,0.755997l0,0z"/>
  <path fill="#ffee9f" fill-rule="evenodd" id="path227" d="m38.255001,75.112999c-1.403999,0.216003 -2.304001,0.576004 -2.556,1.368004c-0.216,0.683998 -0.324001,2.267998 1.223999,2.951996c1.475998,0.576004 5.759998,0.972 7.560001,0.612c1.584,-0.395996 2.34,-2.591995 2.267998,-3.276001c-0.18,-0.863998 -1.908001,-1.475998 -3.239998,-1.691994c-1.512001,-0.325005 -3.960003,-0.217003 -5.256001,0.035995l0,0z"/>
 </g>
</svg>