<?xml version="1.0" encoding="iso-8859-1"?>
<!-- Generator: Adobe Illustrator 19.0.0, SVG Export Plug-In . SVG Version: 6.00 Build 0)  -->
<svg version="1.1" id="Capa_1" xmlns="http://www.w3.org/2000/svg" xmlns:xlink="http://www.w3.org/1999/xlink" x="0px" y="0px"
	 viewBox="0 0 512.001 512.001" style="enable-background:new 0 0 512.001 512.001;" xml:space="preserve">
<path style="fill:#FEDB41;" d="M420.98,45.061c0,8.398-6.598,14.998-14.998,14.998h-95.688l-25.797,51.592
	c-2.701,5.1-7.799,8.4-13.498,8.4H269.8c-5.999-0.601-11.099-4.5-12.898-10.2l-0.901-2.699l-17.699-53.094l-13.797,27.595
	c-2.701,5.1-7.799,8.4-13.498,8.4h-74.99c-8.4,0-14.998-6.6-14.998-14.998c0-8.4,6.598-14.998,14.998-14.998h65.692l25.797-51.594
	c2.701-5.399,8.4-8.999,14.698-8.398c5.999,0.599,11.099,4.498,12.898,10.198l0.901,2.701L273.7,66.058l13.797-27.597
	c2.701-5.098,7.799-8.398,13.498-8.398h104.987C414.382,30.063,420.98,36.661,420.98,45.061z"/>
<path style="fill:#FCBF29;" d="M256.902,109.852l-0.901-2.699V12.966l17.699,53.094l13.797-27.597
	c2.701-5.098,7.799-8.398,13.498-8.398h104.987c8.4,0,14.998,6.598,14.998,14.998c0,8.398-6.598,14.998-14.998,14.998h-95.688
	l-25.797,51.592c-2.701,5.1-7.799,8.4-13.498,8.4H269.8C263.8,119.451,258.7,115.552,256.902,109.852z"/>
<path style="fill:#A4D9F5;" d="M136.016,120.051H75.024c-8.29,0-14.998-6.708-14.998-14.998V75.057
	c0-24.811,21.183-44.994,45.994-44.994s44.994,20.183,44.994,44.994v29.996C151.014,113.343,144.306,120.051,136.016,120.051z"/>
<path style="fill:#81C8EE;" d="M436.978,120.051h-60.992c-8.29,0-14.998-6.708-14.998-14.998V75.057
	c0-24.811,20.183-44.994,44.994-44.994c24.811,0,45.994,20.183,45.994,44.994v29.996
	C451.976,113.343,445.268,120.051,436.978,120.051z"/>
<rect x="30.026" y="180.039" style="fill:#FD3C65;" width="451.943" height="301.962"/>
<rect x="255.998" y="180.039" style="fill:#E50027;" width="225.971" height="301.962"/>
<path style="fill:#CAE8F9;" d="M166.012,180.044H45.027c-8.29,0-14.998-6.708-14.998-14.998v-29.996
	c0-24.811,20.183-44.994,44.994-44.994h60.992c24.811,0,44.994,20.183,44.994,44.994v29.996
	C181.01,173.335,174.302,180.044,166.012,180.044z"/>
<path style="fill:#B7E0F6;" d="M466.974,180.044H345.989c-8.29,0-14.998-6.708-14.998-14.998v-29.996
	c0-24.811,20.183-44.994,44.994-44.994h60.992c24.811,0,44.994,20.183,44.994,44.994v29.996
	C481.972,173.335,475.264,180.044,466.974,180.044z"/>
<path style="fill:#CAE8F9;" d="M166.012,331.024h-14.998v-14.998c0-8.29-6.708-14.998-14.998-14.998s-14.998,6.708-14.998,14.998
	v14.998H106.02c-8.29,0-14.998,6.708-14.998,14.998c0,8.29,6.708,14.998,14.998,14.998h14.998v14.998
	c0,8.29,6.708,14.998,14.998,14.998s14.998-6.708,14.998-14.998v-14.998h14.998c8.29,0,14.998-6.708,14.998-14.998
	C181.01,337.733,174.302,331.024,166.012,331.024z"/>
<path style="fill:#B7E0F6;" d="M405.982,361.021h-59.992c-8.29,0-14.998-6.708-14.998-14.998c0-8.29,6.708-14.998,14.998-14.998
	h59.992c8.29,0,14.998,6.708,14.998,14.998C420.98,354.312,414.272,361.021,405.982,361.021z"/>
<g>
	<path style="fill:#57555C;" d="M511.968,482.005v14.998c0,8.398-6.598,14.998-14.998,14.998H15.031
		c-8.4,0-14.998-6.6-14.998-14.998v-14.998c0-16.498,13.498-29.996,29.996-29.996h451.943
		C498.469,452.009,511.968,465.508,511.968,482.005z"/>
	<path style="fill:#57555C;" d="M511.968,180.044v14.998c0,8.398-6.598,14.998-14.998,14.998H15.031
		c-8.4,0-14.998-6.6-14.998-14.998v-14.998c0-16.498,13.498-29.996,29.996-29.996h451.943
		C498.469,150.047,511.968,163.547,511.968,180.044z"/>
</g>
<g>
	<path style="fill:#3C3A41;" d="M511.968,180.044v14.998c0,8.398-6.598,14.998-14.998,14.998H256.001v-59.992h225.971
		C498.469,150.047,511.968,163.547,511.968,180.044z"/>
	<path style="fill:#3C3A41;" d="M511.968,482.005v14.998c0,8.398-6.598,14.998-14.998,14.998H256.001v-59.992h225.971
		C498.469,452.009,511.968,465.508,511.968,482.005z"/>
</g>
<g>
</g>
<g>
</g>
<g>
</g>
<g>
</g>
<g>
</g>
<g>
</g>
<g>
</g>
<g>
</g>
<g>
</g>
<g>
</g>
<g>
</g>
<g>
</g>
<g>
</g>
<g>
</g>
<g>
</g>
</svg>
