<svg height="100%" width="100%" id="bg-svg" viewBox="0 0 1440 400" xmlns="http://www.w3.org/2000/svg" class="transition duration-300 ease-in-out delay-150"><defs><linearGradient id="gradient"><stop offset="5%" stop-color="#002bdc44"></stop><stop offset="95%" stop-color="#32ded444"></stop></linearGradient></defs><path d="M 0,400 C 0,400 0,80 0,80 C 51.20600147275404,82.16439617083947 102.41200294550808,84.32879234167895 157,88 C 211.58799705449192,91.67120765832105 269.5579896907217,96.84922680412372 328,94 C 386.4420103092783,91.15077319587628 445.35603829160516,80.27430044182621 512,75 C 578.6439617083948,69.72569955817379 653.0178571428571,70.05357142857143 721,75 C 788.9821428571429,79.94642857142857 850.5725331369663,89.51141384388806 914,87 C 977.4274668630337,84.48858615611194 1042.6920103092782,69.90077319587628 1103,71 C 1163.3079896907218,72.09922680412372 1218.6594256259204,88.88549337260677 1274,93 C 1329.3405743740796,97.11450662739323 1384.6702871870398,88.5572533136966 1440,80 C 1440,80 1440,400 1440,400 Z" stroke="none" stroke-width="0" fill="url(#gradient)" class="transition-all duration-300 ease-in-out delay-150"></path><defs><linearGradient id="gradient"><stop offset="5%" stop-color="#002bdc66"></stop><stop offset="95%" stop-color="#32ded466"></stop></linearGradient></defs><path d="M 0,400 C 0,400 0,160 0,160 C 73.50515463917526,147.32253313696611 147.01030927835052,134.64506627393226 208,145 C 268.9896907216495,155.35493372606774 317.4639175257732,188.7422680412371 377,186 C 436.5360824742268,183.2577319587629 507.13402061855675,144.38586156111933 572,141 C 636.8659793814433,137.61413843888067 695.9999999999999,169.7142857142857 744,175 C 792.0000000000001,180.2857142857143 828.8659793814434,158.75699558173787 885,153 C 941.1340206185566,147.24300441826213 1016.5360824742268,157.25773195876286 1082,166 C 1147.4639175257732,174.74226804123714 1202.9896907216496,182.21207658321063 1261,181 C 1319.0103092783504,179.78792341678937 1379.505154639175,169.89396170839467 1440,160 C 1440,160 1440,400 1440,400 Z" stroke="none" stroke-width="0" fill="url(#gradient)" class="transition-all duration-300 ease-in-out delay-150"></path><defs><linearGradient id="gradient"><stop offset="5%" stop-color="#002bdc88"></stop><stop offset="95%" stop-color="#32ded488"></stop></linearGradient></defs><path d="M 0,400 C 0,400 0,240 0,240 C 74.64856406480118,227.44421944035346 149.29712812960236,214.88843888070693 211,216 C 272.70287187039764,217.11156111929307 321.46005154639175,231.89046391752578 375,238 C 428.53994845360825,244.10953608247422 486.86266568483063,241.54970544918996 552,239 C 617.1373343151694,236.45029455081004 689.0892857142858,233.9107142857143 747,226 C 804.9107142857142,218.0892857142857 848.7801914580264,204.80743740795288 904,214 C 959.2198085419736,223.19256259204712 1025.789948453608,254.85953608247422 1094,260 C 1162.210051546392,265.1404639175258 1232.0600147275406,243.75441826215024 1290,236 C 1347.9399852724594,228.24558173784976 1393.9699926362296,234.12279086892488 1440,240 C 1440,240 1440,400 1440,400 Z" stroke="none" stroke-width="0" fill="url(#gradient)" class="transition-all duration-300 ease-in-out delay-150"></path><defs><linearGradient id="gradient"><stop offset="5%" stop-color="#002bdcff"></stop><stop offset="95%" stop-color="#32ded4ff"></stop></linearGradient></defs><path d="M 0,400 C 0,400 0,320 0,320 C 72.47036082474226,317.3838365243005 144.94072164948452,314.7676730486009 194,307 C 243.05927835051548,299.2323269513991 268.70747422680415,286.3131443298969 332,292 C 395.29252577319585,297.6868556701031 496.22938144329896,321.9797496318115 567,323 C 637.770618556701,324.0202503681885 678.375,301.7678571428571 725,297 C 771.625,292.2321428571429 824.2706185567012,304.94882179675994 883,314 C 941.7293814432988,323.05117820324006 1006.5425257731961,328.43685567010306 1066,329 C 1125.457474226804,329.56314432989694 1179.5592783505156,325.3037555228277 1241,323 C 1302.4407216494844,320.6962444771723 1371.2203608247423,320.34812223858614 1440,320 C 1440,320 1440,400 1440,400 Z" stroke="none" stroke-width="0" fill="url(#gradient)" class="transition-all duration-300 ease-in-out delay-150"></path></svg>