<svg height="100%" width="100%" id="bg-svg" viewBox="0 0 1440 700" xmlns="http://www.w3.org/2000/svg" class="transition duration-300 ease-in-out delay-150"><path d="M 0,700 C 0,700 0,175 0,175 C 54.36321796759941,137.87757731958763 108.72643593519882,100.75515463917526 159,120 C 209.27356406480118,139.24484536082474 255.4574742268041,214.8569587628866 327,214 C 398.5425257731959,213.1430412371134 495.4436671575846,135.81701030927837 563,118 C 630.5563328424154,100.18298969072164 668.7678571428572,141.875 718,169 C 767.2321428571428,196.125 827.4849042709867,208.68298969072166 897,209 C 966.5150957290133,209.31701030927834 1045.2925257731956,197.3930412371134 1100,193 C 1154.7074742268044,188.6069587628866 1185.34499263623,191.74484536082474 1238,190 C 1290.65500736377,188.25515463917526 1365.327503681885,181.62757731958763 1440,175 C 1440,175 1440,700 1440,700 Z" stroke="none" stroke-width="0" fill="#ff008066" class="transition-all duration-300 ease-in-out delay-150"></path><path d="M 0,700 C 0,700 0,350 0,350 C 55.612665684830645,344.65776877761414 111.22533136966129,339.3155375552283 164,329 C 216.7746686303387,318.6844624447717 266.7113402061855,303.39561855670104 331,298 C 395.2886597938145,292.60438144329896 473.9293078055965,297.1019882179676 537,298 C 600.0706921944035,298.8980117820324 647.5714285714284,296.1964285714286 702,308 C 756.4285714285716,319.8035714285714 817.7849779086894,346.1122974963181 890,349 C 962.2150220913106,351.8877025036819 1045.2886597938143,331.3543814432989 1107,320 C 1168.7113402061857,308.6456185567011 1209.0603829160532,306.47017673048606 1261,313 C 1312.9396170839468,319.52982326951394 1376.4698085419734,334.76491163475697 1440,350 C 1440,350 1440,700 1440,700 Z" stroke="none" stroke-width="0" fill="#ff008088" class="transition-all duration-300 ease-in-out delay-150"></path><path d="M 0,700 C 0,700 0,525 0,525 C 64.74484536082474,525.959499263623 129.48969072164948,526.9189985272459 193,534 C 256.5103092783505,541.0810014727541 318.7860824742268,554.2835051546392 369,558 C 419.2139175257732,561.7164948453608 457.36597938144325,555.9469808541974 515,551 C 572.6340206185567,546.0530191458026 649.7500000000001,541.9285714285714 722,555 C 794.2499999999999,568.0714285714286 861.6340206185565,598.3387334315169 926,585 C 990.3659793814435,571.6612665684831 1051.7139175257732,514.7164948453608 1099,497 C 1146.2860824742268,479.28350515463916 1179.5103092783506,500.7952871870398 1234,512 C 1288.4896907216494,523.2047128129602 1364.2448453608247,524.1023564064801 1440,525 C 1440,525 1440,700 1440,700 Z" stroke="none" stroke-width="0" fill="#ff0080ff" class="transition-all duration-300 ease-in-out delay-150"></path></svg>